<?xml version="1.0" encoding="UTF-8" standalone="no"?>
<!-- Created with Inkscape (http://www.inkscape.org/) -->

<svg
   xmlns:dc="http://purl.org/dc/elements/1.1/"
   xmlns:cc="http://creativecommons.org/ns#"
   xmlns:rdf="http://www.w3.org/1999/02/22-rdf-syntax-ns#"
   xmlns:svg="http://www.w3.org/2000/svg"
   xmlns="http://www.w3.org/2000/svg"
   xmlns:sodipodi="http://sodipodi.sourceforge.net/DTD/sodipodi-0.dtd"
   xmlns:inkscape="http://www.inkscape.org/namespaces/inkscape"
   width="208.87717mm"
   height="96.955917mm"
   viewBox="0 0 208.87717 96.955917"
   version="1.1"
   id="svg8"
   inkscape:version="0.91 r13725"
   sodipodi:docname="lstm_drawing.svg">
  <defs
     id="defs2" />
  <sodipodi:namedview
     id="base"
     pagecolor="#ffffff"
     bordercolor="#666666"
     borderopacity="1.0"
     inkscape:pageopacity="0.0"
     inkscape:pageshadow="2"
     inkscape:zoom="1.4142136"
     inkscape:cx="374.87834"
     inkscape:cy="246.44299"
     inkscape:document-units="mm"
     inkscape:current-layer="layer3"
     showgrid="false"
     inkscape:measure-start="275.714,695.714"
     inkscape:measure-end="441.429,641.429"
     inkscape:snap-global="true"
     inkscape:snap-nodes="false"
     inkscape:snap-grids="true"
     inkscape:window-width="2560"
     inkscape:window-height="1313"
     inkscape:window-x="0"
     inkscape:window-y="1"
     inkscape:window-maximized="1"
     fit-margin-top="0"
     fit-margin-left="0"
     fit-margin-right="0"
     fit-margin-bottom="0">
    <inkscape:grid
       type="xygrid"
       id="grid7060"
       originx="-2.5330308"
       originy="-194.30276" />
  </sodipodi:namedview>
  <metadata
     id="metadata5">
    <rdf:RDF>
      <cc:Work
         rdf:about="">
        <dc:format>image/svg+xml</dc:format>
        <dc:type
           rdf:resource="http://purl.org/dc/dcmitype/StillImage" />
        <dc:title></dc:title>
      </cc:Work>
    </rdf:RDF>
  </metadata>
  <g
     inkscape:groupmode="layer"
     id="layer4"
     inkscape:label="bounding_box"
     style="display:none"
     transform="translate(-2.5330309,-5.7413165)">
    <rect
       id="rect3713-6"
       width="164.77177"
       height="95.216919"
       x="21.17627"
       y="6.6108165"
       style="opacity:1;fill:#f8fffa;fill-opacity:0;stroke:#000000;stroke-width:1.73899996;stroke-miterlimit:4;stroke-dasharray:none;stroke-opacity:1" />
  </g>
  <g
     inkscape:label="gates"
     inkscape:groupmode="layer"
     id="layer1"
     style="display:inline"
     transform="translate(-2.5330309,-5.7413165)">
    <rect
       style="fill:#002821;fill-opacity:0;stroke:#000000;stroke-width:0.2;stroke-miterlimit:4;stroke-dasharray:none;stroke-dashoffset:0;stroke-opacity:1"
       id="forget_gate"
       width="29.931795"
       height="24.90637"
       x="59.608829"
       y="21.163383"
       inkscape:label="#rect4548" />
    <rect
       style="opacity:1;fill:#004136;fill-opacity:0;stroke:#000000;stroke-width:0.2;stroke-miterlimit:4;stroke-dasharray:none;stroke-dashoffset:0;stroke-opacity:1"
       id="update_gate"
       width="40.775185"
       height="24.845125"
       x="91.704269"
       y="21.152376"
       inkscape:label="#rect4554" />
    <rect
       style="fill:#002e27;fill-opacity:0;stroke:#000000;stroke-width:0.2;stroke-miterlimit:4;stroke-dasharray:none;stroke-dashoffset:0;stroke-opacity:1"
       id="input_gate"
       width="50.900631"
       height="39.864349"
       x="60.059948"
       y="47.696476"
       inkscape:label="#rect4559" />
    <rect
       style="fill:#004e41;fill-opacity:0;stroke:#000000;stroke-width:0.2;stroke-miterlimit:4;stroke-dasharray:none;stroke-dashoffset:0;stroke-opacity:1"
       id="output_gate"
       width="43.507645"
       height="47.107838"
       x="137.43402"
       y="51.447044"
       inkscape:label="#rect4561" />
    <flowRoot
       xml:space="preserve"
       id="flowRoot4759"
       style="font-style:normal;font-weight:normal;font-size:40px;line-height:1.25;font-family:sans-serif;letter-spacing:0px;word-spacing:0px;fill:#000000;fill-opacity:1;stroke:none"
       transform="scale(0.26458333)"><flowRegion
         id="flowRegion4761"><rect
           id="rect4763"
           width="45.714287"
           height="50"
           x="279.28571"
           y="101.8054" /></flowRegion><flowPara
         id="flowPara4765" /></flowRoot>  </g>
  <g
     inkscape:groupmode="layer"
     id="layer6"
     inkscape:label="arrows"
     style="display:inline"
     transform="translate(-2.5330309,-5.7413165)"
     sodipodi:insensitive="true">
    <path
       style="display:inline;fill:#000000;fill-opacity:1;stroke:#000000;stroke-width:0.24841234px;stroke-linecap:butt;stroke-linejoin:miter;stroke-opacity:1"
       d="m 64.899135,31.616218 -0.01192,-1.41637 2.361658,0.737396 z"
       id="path4600-8-6"
       inkscape:connector-curvature="0"
       sodipodi:nodetypes="cccc" />
    <path
       style="display:inline;fill:none;stroke:#000000;stroke-width:0.2;stroke-linecap:butt;stroke-linejoin:miter;stroke-miterlimit:4;stroke-dasharray:none;stroke-opacity:1"
       d="m 16.346125,46.080477 12.157554,-0.01073 -0.06299,-15.16602"
       id="path4741"
       inkscape:connector-curvature="0"
       sodipodi:nodetypes="ccc" />
    <path
       style="display:inline;fill:none;stroke:#000000;stroke-width:0.2;stroke-linecap:butt;stroke-linejoin:miter;stroke-miterlimit:4;stroke-dasharray:none;stroke-opacity:1"
       d="m 34.66567,30.872498 0.05218,61.424525 h 106.1983"
       id="path4743"
       inkscape:connector-curvature="0"
       sodipodi:nodetypes="ccc" />
    <path
       style="display:inline;fill:none;stroke:#000000;stroke-width:0.2;stroke-linecap:butt;stroke-linejoin:miter;stroke-miterlimit:4;stroke-dasharray:none;stroke-opacity:1"
       d="m 42.235453,31.079466 0.06299,41.234975 22.908111,10e-7"
       id="path4745"
       inkscape:connector-curvature="0"
       sodipodi:nodetypes="ccc" />
    <path
       style="display:inline;fill:none;stroke:#000000;stroke-width:0.2;stroke-linecap:butt;stroke-linejoin:miter;stroke-miterlimit:4;stroke-dasharray:none;stroke-opacity:1"
       d="m 50.802227,31.016988 0.06299,23.241532 h 13.787662"
       id="path4747"
       inkscape:connector-curvature="0"
       sodipodi:nodetypes="ccc" />
    <path
       style="display:inline;fill:none;stroke:#000000;stroke-width:0.24841234px;stroke-linecap:butt;stroke-linejoin:miter;stroke-opacity:1"
       d="m 78.681148,54.203624 16.151957,-0.0076"
       id="path4877"
       inkscape:connector-curvature="0"
       sodipodi:nodetypes="cc" />
    <path
       style="display:inline;fill:none;stroke:#000000;stroke-width:0.2;stroke-linecap:butt;stroke-linejoin:miter;stroke-miterlimit:4;stroke-dasharray:none;stroke-opacity:1"
       d="m 194.13435,31.7995 c -64.50622,0.124956 -65.01681,-0.124955 -65.01681,-0.124955"
       id="path4563-7"
       inkscape:connector-curvature="0" />
    <path
       style="display:inline;fill:none;stroke:#000000;stroke-width:0.2;stroke-linecap:butt;stroke-linejoin:miter;stroke-miterlimit:4;stroke-dasharray:none;stroke-opacity:1"
       d="m 15.616351,12.159583 86.586509,-0.07319 v 12.252764"
       id="path4739"
       inkscape:connector-curvature="0"
       sodipodi:nodetypes="ccc" />
    <path
       style="display:inline;fill:none;stroke:#000000;stroke-width:0.2;stroke-linecap:butt;stroke-linejoin:miter;stroke-miterlimit:4;stroke-dasharray:none;stroke-opacity:1"
       d="m 79.305655,31.235658 15.669127,-0.03124"
       id="path4749"
       inkscape:connector-curvature="0"
       sodipodi:nodetypes="cc" />
    <path
       style="display:inline;fill:none;stroke:#000000;stroke-width:0.24841234px;stroke-linecap:butt;stroke-linejoin:miter;stroke-opacity:1"
       d="m 85.62099,74.078657 h 16.48028 l -1e-5,-13.224573"
       id="path4879"
       inkscape:connector-curvature="0"
       sodipodi:nodetypes="ccc" />
    <path
       style="display:inline;fill:none;stroke:#000000;stroke-width:0.2;stroke-linecap:butt;stroke-linejoin:miter;stroke-miterlimit:4;stroke-dasharray:none;stroke-opacity:1"
       d="m 106.28816,54.242701 h 17.86109 l 0.0891,-15.767935"
       id="path4881"
       inkscape:connector-curvature="0"
       sodipodi:nodetypes="ccc" />
    <path
       style="display:inline;fill:none;stroke:#000000;stroke-width:0.2;stroke-linecap:butt;stroke-linejoin:miter;stroke-miterlimit:4;stroke-dasharray:none;stroke-opacity:1"
       d="m 106.70672,31.204421 h 11.03937"
       id="path4883"
       inkscape:connector-curvature="0"
       sodipodi:nodetypes="cc" />
    <path
       style="display:inline;fill:none;stroke:#000000;stroke-width:0.2;stroke-linecap:butt;stroke-linejoin:miter;stroke-miterlimit:4;stroke-dasharray:none;stroke-opacity:1"
       d="m 150.9579,31.829193 0.063,23.908617"
       id="path4885"
       inkscape:connector-curvature="0"
       sodipodi:nodetypes="cc" />
    <path
       style="display:inline;fill:none;stroke:#000000;stroke-width:0.2;stroke-linecap:butt;stroke-linejoin:miter;stroke-miterlimit:4;stroke-dasharray:none;stroke-opacity:1"
       d="m 159.7378,63.122493 h 7.64788"
       id="path4887"
       inkscape:connector-curvature="0"
       sodipodi:nodetypes="cc" />
    <path
       style="display:inline;fill:none;stroke:#000000;stroke-width:0.2;stroke-linecap:butt;stroke-linejoin:miter;stroke-miterlimit:4;stroke-dasharray:none;stroke-opacity:1"
       d="m 154.74916,91.926602 h 19.68729 V 70.095163"
       id="path4889"
       inkscape:connector-curvature="0"
       sodipodi:nodetypes="ccc" />
    <path
       style="display:inline;fill:none;stroke:#000000;stroke-width:0.2;stroke-linecap:butt;stroke-linejoin:miter;stroke-miterlimit:4;stroke-dasharray:none;stroke-opacity:1"
       d="m 179.1475,62.755426 h 14.29895"
       id="path6831"
       inkscape:connector-curvature="0" />
    <path
       style="fill:none;stroke:#000000;stroke-width:0.2;stroke-linecap:butt;stroke-linejoin:miter;stroke-miterlimit:4;stroke-dasharray:none;stroke-opacity:1"
       d="M 14.918663,30.908561 H 65.189496"
       id="path6879"
       inkscape:connector-curvature="0" />
    <path
       style="display:inline;fill:#000000;fill-opacity:1;stroke:#000000;stroke-width:0.24841234px;stroke-linecap:butt;stroke-linejoin:miter;stroke-opacity:1"
       d="m 63.945384,54.989648 -0.01192,-1.41637 2.361658,0.737396 z"
       id="path4600-8-6-9"
       inkscape:connector-curvature="0"
       sodipodi:nodetypes="cccc" />
    <path
       style="display:inline;fill:#000000;fill-opacity:1;stroke:#000000;stroke-width:0.24841234px;stroke-linecap:butt;stroke-linejoin:miter;stroke-opacity:1"
       d="m 63.945384,73.097159 -0.01192,-1.41637 2.361658,0.737396 z"
       id="path4600-8-6-1"
       inkscape:connector-curvature="0"
       sodipodi:nodetypes="cccc" />
    <path
       style="display:inline;fill:#000000;fill-opacity:1;stroke:#000000;stroke-width:0.24841234px;stroke-linecap:butt;stroke-linejoin:miter;stroke-opacity:1"
       d="m 94.436487,54.911813 -0.01192,-1.41637 2.361658,0.737396 z"
       id="path4600-8-6-8"
       inkscape:connector-curvature="0"
       sodipodi:nodetypes="cccc" />
    <path
       style="display:inline;fill:#000000;fill-opacity:1;stroke:#000000;stroke-width:0.24841234px;stroke-linecap:butt;stroke-linejoin:miter;stroke-opacity:1"
       d="m 94.861709,31.94976 -0.01192,-1.41637 2.361658,0.737396 z"
       id="path4600-8-6-90"
       inkscape:connector-curvature="0"
       sodipodi:nodetypes="cccc" />
    <path
       style="display:inline;fill:#000000;fill-opacity:1;stroke:#000000;stroke-width:0.24841234px;stroke-linecap:butt;stroke-linejoin:miter;stroke-opacity:1"
       d="m 117.0678,31.94976 -0.0119,-1.41637 2.36166,0.737396 z"
       id="path4600-8-6-900"
       inkscape:connector-curvature="0"
       sodipodi:nodetypes="cccc" />
    <path
       style="display:inline;fill:#000000;fill-opacity:1;stroke:#000000;stroke-width:0.24841234px;stroke-linecap:butt;stroke-linejoin:miter;stroke-opacity:1"
       d="m 140.5181,93.008739 -0.0119,-1.41637 2.36166,0.737396 z"
       id="path4600-8-6-5"
       inkscape:connector-curvature="0"
       sodipodi:nodetypes="cccc" />
    <path
       style="display:inline;fill:#000000;fill-opacity:1;stroke:#000000;stroke-width:0.24841234px;stroke-linecap:butt;stroke-linejoin:miter;stroke-opacity:1"
       d="m 193.43747,63.475456 -0.0119,-1.41637 2.36166,0.737396 z"
       id="path4600-8-6-85"
       inkscape:connector-curvature="0"
       sodipodi:nodetypes="cccc" />
    <path
       style="display:inline;fill:#000000;fill-opacity:1;stroke:#000000;stroke-width:0.24841234px;stroke-linecap:butt;stroke-linejoin:miter;stroke-opacity:1"
       d="m 193.90519,32.418737 -0.0119,-1.41637 2.36166,0.737396 z"
       id="path4600-8-6-0"
       inkscape:connector-curvature="0"
       sodipodi:nodetypes="cccc" />
    <path
       style="display:inline;fill:#000000;fill-opacity:1;stroke:#000000;stroke-width:0.24841234px;stroke-linecap:butt;stroke-linejoin:miter;stroke-opacity:1"
       d="m 167.15151,63.756089 -0.0119,-1.41637 2.36165,0.737396 z"
       id="path4600-8-6-06"
       inkscape:connector-curvature="0"
       sodipodi:nodetypes="cccc" />
    <path
       style="display:inline;fill:#000000;fill-opacity:1;stroke:#000000;stroke-width:0.24841234px;stroke-linecap:butt;stroke-linejoin:miter;stroke-opacity:1"
       d="m 101.46454,24.195135 1.41637,-0.01192 -0.73739,2.361658 z"
       id="path4600-8-6-14"
       inkscape:connector-curvature="0"
       sodipodi:nodetypes="cccc" />
    <path
       style="display:inline;fill:#000000;fill-opacity:1;stroke:#000000;stroke-width:0.24841234px;stroke-linecap:butt;stroke-linejoin:miter;stroke-opacity:1"
       d="m 150.35332,55.326904 1.41637,-0.01192 -0.73739,2.361658 z"
       id="path4600-8-6-14-4"
       inkscape:connector-curvature="0"
       sodipodi:nodetypes="cccc" />
    <path
       style="display:inline;fill:#000000;fill-opacity:1;stroke:#000000;stroke-width:0.24841234px;stroke-linecap:butt;stroke-linejoin:miter;stroke-opacity:1"
       d="m 101.48671,61.514351 1.41637,0.01192 -0.73739,-2.361658 z"
       id="path4600-8-6-14-5"
       inkscape:connector-curvature="0"
       sodipodi:nodetypes="cccc" />
    <path
       style="display:inline;fill:#000000;fill-opacity:1;stroke:#000000;stroke-width:0.24841234px;stroke-linecap:butt;stroke-linejoin:miter;stroke-opacity:1"
       d="m 123.626,38.675836 1.41637,0.01192 -0.73739,-2.361658 z"
       id="path4600-8-6-14-5-8"
       inkscape:connector-curvature="0"
       sodipodi:nodetypes="cccc" />
    <path
       style="display:inline;fill:#000000;fill-opacity:1;stroke:#000000;stroke-width:0.24841234px;stroke-linecap:butt;stroke-linejoin:miter;stroke-opacity:1"
       d="m 173.77696,70.302357 1.41637,0.01192 -0.73739,-2.361659 z"
       id="path4600-8-6-14-5-7"
       inkscape:connector-curvature="0"
       sodipodi:nodetypes="cccc" />
  </g>
  <g
     inkscape:groupmode="layer"
     id="layer5"
     inkscape:label="operations"
     style="display:inline"
     transform="translate(-2.5330309,-5.7413165)"
     sodipodi:insensitive="true">
    <rect
       style="fill:#814822;fill-opacity:0;stroke:#000000;stroke-width:0.2;stroke-miterlimit:4;stroke-dasharray:none;stroke-dashoffset:0;stroke-opacity:1"
       id="forget_sigmoid"
       width="11.495858"
       height="12.151823"
       x="67.792358"
       y="25.48053"
       inkscape:label="#rect4751-5" />
    <rect
       style="fill:#814822;fill-opacity:0;stroke:#000000;stroke-width:0.2;stroke-miterlimit:4;stroke-dasharray:none;stroke-dashoffset:0;stroke-opacity:1"
       id="input_sigmoid"
       width="11.75892"
       height="12.193149"
       x="66.959183"
       y="50.012684"
       inkscape:label="#rect4753-3" />
    <rect
       style="fill:#c9580c;fill-opacity:0;stroke:#000000;stroke-width:0.2;stroke-miterlimit:4;stroke-dasharray:none;stroke-dashoffset:0;stroke-opacity:1"
       id="input_tanh"
       width="18.707373"
       height="9.3657522"
       x="66.781006"
       y="67.507202"
       inkscape:label="#rect4755-3" />
    <ellipse
       style="fill:#a6541d;fill-opacity:0;stroke:#000000;stroke-width:0.2;stroke-miterlimit:4;stroke-dasharray:none;stroke-dashoffset:0;stroke-opacity:1"
       id="update_mult"
       cx="102.21367"
       cy="31.391623"
       rx="4.4855442"
       ry="4.3606029"
       inkscape:label="#path4842-3" />
    <ellipse
       style="fill:#c9580c;fill-opacity:0;stroke:#000000;stroke-width:0.2;stroke-miterlimit:4;stroke-dasharray:none;stroke-dashoffset:0;stroke-opacity:1"
       id="update_add"
       cx="124.95393"
       cy="30.208614"
       rx="4.7015715"
       ry="4.4865365"
       transform="matrix(0.99995337,0.00965702,-0.01019182,0.99994806,0,0)"
       inkscape:label="#path4842-2-8" />
    <ellipse
       style="fill:#a6541d;fill-opacity:0;stroke:#000000;stroke-width:0.2;stroke-miterlimit:4;stroke-dasharray:none;stroke-dashoffset:0;stroke-opacity:1"
       id="input_mult"
       cx="101.87962"
       cy="54.430496"
       rx="4.4855442"
       ry="4.3606029"
       inkscape:label="#path4842-0-8" />
    <ellipse
       style="fill:#a6541d;fill-opacity:0;stroke:#000000;stroke-width:0.2;stroke-miterlimit:4;stroke-dasharray:none;stroke-dashoffset:0;stroke-opacity:1"
       id="output_mult"
       cx="174.68811"
       cy="62.935642"
       rx="4.6067944"
       ry="4.4808645"
       inkscape:label="#path4842-08-4" />
    <ellipse
       style="fill:#f26200;fill-opacity:0;stroke:#000000;stroke-width:0.2;stroke-miterlimit:4;stroke-dasharray:none;stroke-dashoffset:0;stroke-opacity:1"
       id="output_tanh"
       cx="151.035"
       cy="63.060593"
       rx="8.6570187"
       ry="4.8431363"
       inkscape:label="#path4842-6-3" />
    <rect
       style="fill:#814822;fill-opacity:0;stroke:#000000;stroke-width:0.2;stroke-miterlimit:4;stroke-dasharray:none;stroke-dashoffset:0;stroke-opacity:1"
       id="output_sigmoid"
       width="11.75892"
       height="12.193149"
       x="143.21402"
       y="84.506927"
       inkscape:label="#rect4753-5-3" />
    <path
       style="fill:none;stroke:#000000;stroke-width:0.24841234px;stroke-linecap:butt;stroke-linejoin:miter;stroke-opacity:1"
       d="M 212.53272,102.0536 Z"
       id="path6833"
       inkscape:connector-curvature="0" />
  </g>
  <g
     inkscape:groupmode="layer"
     id="layer3"
     inkscape:label="text"
     style="display:inline"
     transform="translate(-2.5330309,-5.7413165)">
    <g
       transform="scale(1.0041032,0.99591357)"
       style="font-style:normal;font-weight:normal;font-size:9.93649387px;line-height:1.25;font-family:sans-serif;letter-spacing:0px;word-spacing:0px;display:inline;fill:#000000;fill-opacity:1;stroke:none;stroke-width:0.24841234"
       id="forget_sigmoid_text">
      <path
         d="m 75.227276,32.130897 q 0,1.363336 -0.684093,2.110502 -0.679242,0.747166 -1.809695,0.747166 -1.169267,0 -1.838805,-0.766573 -0.669539,-0.766573 -0.669539,-2.091095 0,-1.334225 0.684094,-2.095946 0.684094,-0.766574 1.833953,-0.766574 0.266845,0 0.523987,0.05337 0.257142,0.05337 0.397842,0.09703 l 2.328829,0 0,0.800535 -1.397297,0 q 0.300807,0.354176 0.465765,0.824794 0.164959,0.470618 0.164959,1.086787 z m -0.941235,0 q 0,-1.043121 -0.397842,-1.562256 -0.397842,-0.519135 -1.145008,-0.519135 -0.781128,0 -1.17897,0.543393 -0.397841,0.543394 -0.397841,1.537998 0,1.014011 0.402693,1.54285 0.407545,0.528838 1.164415,0.528838 0.737463,0 1.145008,-0.519135 0.407545,-0.523986 0.407545,-1.552553 z"
         style="font-style:normal;font-variant:normal;font-weight:normal;font-stretch:normal;font-size:9.93633938px;font-family:'Book Antiqua';-inkscape-font-specification:'Book Antiqua, Normal';text-align:start;writing-mode:lr-tb;text-anchor:start;stroke-width:0.24841234"
         id="path4102" />
    </g>
    <g
       transform="scale(1.0041032,0.99591357)"
       style="font-style:normal;font-weight:normal;font-size:9.93649387px;line-height:1.25;font-family:sans-serif;letter-spacing:0px;word-spacing:0px;display:inline;fill:#000000;fill-opacity:1;stroke:none;stroke-width:0.24841234"
       id="input_sigmoid_text">
      <path
         d="m 75.022465,56.665428 q 0,1.363335 -0.684094,2.110502 -0.679242,0.747166 -1.809694,0.747166 -1.169267,0 -1.838805,-0.766573 -0.669539,-0.766573 -0.669539,-2.091095 0,-1.334225 0.684094,-2.095947 0.684094,-0.766573 1.833953,-0.766573 0.266845,0 0.523987,0.05337 0.257141,0.05337 0.397842,0.09703 l 2.328829,0 0,0.800535 -1.397298,0 q 0.300808,0.354176 0.465766,0.824794 0.164959,0.470617 0.164959,1.086787 z m -0.941235,0 q 0,-1.043122 -0.397842,-1.562257 -0.397842,-0.519135 -1.145008,-0.519135 -0.781128,0 -1.17897,0.543394 -0.397841,0.543393 -0.397841,1.537998 0,1.014011 0.402693,1.542849 0.407545,0.528839 1.164415,0.528839 0.737462,0 1.145008,-0.519135 0.407545,-0.523987 0.407545,-1.552553 z"
         style="font-style:normal;font-variant:normal;font-weight:normal;font-stretch:normal;font-size:9.93633938px;font-family:'Book Antiqua';-inkscape-font-specification:'Book Antiqua, Normal';text-align:start;writing-mode:lr-tb;text-anchor:start;stroke-width:0.24841234"
         id="path4081" />
    </g>
    <g
       transform="scale(1.0041032,0.99591357)"
       style="font-style:normal;font-weight:normal;font-size:9.93649387px;line-height:1.25;font-family:sans-serif;letter-spacing:0px;word-spacing:0px;display:inline;fill:#000000;fill-opacity:1;stroke:none;stroke-width:0.24841234"
       id="output_sigmoid_text">
      <path
         d="m 150.61085,90.910854 q 0,1.363336 -0.68409,2.110502 -0.67924,0.747166 -1.8097,0.747166 -1.16926,0 -1.8388,-0.766573 -0.66954,-0.766573 -0.66954,-2.091095 0,-1.334225 0.68409,-2.095947 0.6841,-0.766573 1.83396,-0.766573 0.26684,0 0.52398,0.05337 0.25715,0.05337 0.39785,0.09704 l 2.32882,0 0,0.800535 -1.39729,0 q 0.3008,0.354176 0.46576,0.824794 0.16496,0.470617 0.16496,1.086787 z m -0.94123,0 q 0,-1.043122 -0.39785,-1.562257 -0.39784,-0.519134 -1.145,-0.519134 -0.78113,0 -1.17897,0.543393 -0.39784,0.543394 -0.39784,1.537998 0,1.014011 0.40269,1.54285 0.40754,0.528838 1.16441,0.528838 0.73747,0 1.14501,-0.519135 0.40755,-0.523987 0.40755,-1.552553 z"
         style="font-style:normal;font-variant:normal;font-weight:normal;font-stretch:normal;font-size:9.93633938px;font-family:'Book Antiqua';-inkscape-font-specification:'Book Antiqua, Normal';text-align:start;writing-mode:lr-tb;text-anchor:start;stroke-width:0.24841234"
         id="path4004" />
    </g>
    <g
       transform="scale(1.0041032,0.99591357)"
       style="font-style:normal;font-weight:normal;font-size:6.3499999px;line-height:1.25;font-family:sans-serif;letter-spacing:0px;word-spacing:0px;display:inline;fill:#000000;fill-opacity:1;stroke:none;stroke-width:0.24841234"
       id="text4806-0">
      <path
         d="m 65.968362,43.551796 0,-2.424658 -0.514697,0 0,-0.325562 0.514697,0 0,-0.79375 q 0,-0.827856 0.15503,-1.072802 0.155029,-0.248047 0.567407,-0.248047 0.102319,0 0.195337,0.0186 0.09302,0.0155 0.173633,0.04651 l -0.07131,0.334863 q -0.07441,-0.03721 -0.145727,-0.05581 -0.06821,-0.0186 -0.127124,-0.0186 -0.201538,0 -0.285254,0.161231 -0.08372,0.15813 -0.08372,0.58601 l 0,1.041797 0.604614,0 0,0.325562 -0.604614,0 0,2.424658 -0.378272,0 z"
         style="font-style:normal;font-variant:normal;font-weight:normal;font-stretch:normal;font-size:6.3499999px;font-family:'Futura Lt BT';-inkscape-font-specification:'Futura Lt BT, Normal';text-align:start;writing-mode:lr-tb;text-anchor:start;stroke-width:0.24841234"
         id="path4089" />
      <path
         d="m 68.789896,43.316151 q 0.452685,0 0.765844,-0.325561 0.31626,-0.328662 0.31626,-0.803052 0,-0.480591 -0.313159,-0.806152 -0.313159,-0.325562 -0.768945,-0.325562 -0.452686,0 -0.765845,0.325562 -0.313159,0.325561 -0.313159,0.806152 0,0.47439 0.313159,0.803052 0.313159,0.325561 0.765845,0.325561 z m -0.0124,0.356568 q -0.294555,0 -0.564306,-0.117822 -0.269751,-0.114722 -0.489893,-0.331763 -0.207739,-0.204639 -0.31626,-0.471289 -0.10852,-0.266651 -0.10852,-0.570508 0,-0.300757 0.111621,-0.570508 0.111621,-0.269751 0.31936,-0.47749 0.21084,-0.21084 0.480591,-0.322461 0.269751,-0.111621 0.567407,-0.111621 0.303858,0 0.576709,0.111621 0.275952,0.111621 0.489893,0.322461 0.21394,0.21084 0.325561,0.480591 0.114722,0.269751 0.114722,0.567407 0,0.297656 -0.111621,0.567407 -0.111621,0.266651 -0.322461,0.47439 -0.217041,0.217041 -0.496094,0.331763 -0.275952,0.117822 -0.576709,0.117822 z"
         style="font-style:normal;font-variant:normal;font-weight:normal;font-stretch:normal;font-size:6.3499999px;font-family:'Futura Lt BT';-inkscape-font-specification:'Futura Lt BT, Normal';text-align:start;writing-mode:lr-tb;text-anchor:start;stroke-width:0.24841234"
         id="path4091" />
      <path
         d="m 71.456399,41.353481 q 0.21084,-0.356568 0.412378,-0.505396 0.204639,-0.148828 0.47439,-0.148828 0.08062,0 0.16123,0.0155 0.08372,0.0155 0.164331,0.04341 l -0.124023,0.359668 q -0.06201,-0.0186 -0.130225,-0.03101 -0.06511,-0.0124 -0.127124,-0.0124 -0.344165,0 -0.589111,0.322461 -0.241846,0.322461 -0.241846,0.803052 l 0,1.351855 -0.381372,0 0,-2.75022 0.381372,0 0,0.551905 z"
         style="font-style:normal;font-variant:normal;font-weight:normal;font-stretch:normal;font-size:6.3499999px;font-family:'Futura Lt BT';-inkscape-font-specification:'Futura Lt BT, Normal';text-align:start;writing-mode:lr-tb;text-anchor:start;stroke-width:0.24841234"
         id="path4093" />
      <path
         d="m 75.502664,40.801576 0,2.27273 q 0,0.542602 -0.03101,0.827856 -0.02791,0.285254 -0.09612,0.42478 -0.142627,0.306958 -0.437183,0.455787 -0.294555,0.151928 -0.74414,0.151928 -0.548804,0 -0.855762,-0.21394 -0.303858,-0.21084 -0.36897,-0.641821 l 0.47749,0 q 0.04651,0.254248 0.241846,0.384472 0.198438,0.130225 0.536401,0.130225 0.254249,0 0.455787,-0.08992 0.204638,-0.08992 0.306958,-0.248047 0.06821,-0.102319 0.09612,-0.238745 0.03101,-0.133325 0.03101,-0.415479 l 0,-0.145727 0,-0.412378 q -0.127124,0.294556 -0.390674,0.461987 -0.260449,0.167432 -0.598413,0.167432 -0.57981,0 -0.927075,-0.403076 -0.344165,-0.403077 -0.344165,-1.082105 0,-0.672827 0.353466,-1.079004 0.353467,-0.409277 0.936377,-0.409277 0.325562,0 0.589112,0.170532 0.26665,0.167432 0.381372,0.446485 l 0,-0.514698 0.387573,0 z m -1.314649,0.248047 q -0.42788,0 -0.675927,0.306958 -0.244947,0.303858 -0.244947,0.837158 0,0.530201 0.232544,0.827857 0.235645,0.294555 0.651123,0.294555 0.440284,0 0.703833,-0.313159 0.266651,-0.313159 0.266651,-0.843359 0,-0.520899 -0.248047,-0.815454 -0.248047,-0.294556 -0.68523,-0.294556 z"
         style="font-style:normal;font-variant:normal;font-weight:normal;font-stretch:normal;font-size:6.3499999px;font-family:'Futura Lt BT';-inkscape-font-specification:'Futura Lt BT, Normal';text-align:start;writing-mode:lr-tb;text-anchor:start;stroke-width:0.24841234"
         id="path4095" />
      <path
         d="m 78.429617,41.861977 q -0.0279,-0.378272 -0.251148,-0.586011 -0.223242,-0.207739 -0.604614,-0.207739 -0.347265,0 -0.58291,0.217041 -0.232544,0.217041 -0.269751,0.576709 l 1.708423,0 z m 0.452685,0.325561 -2.185913,0 q 0.0155,0.533301 0.266651,0.837158 0.251147,0.303858 0.672827,0.303858 0.303857,0 0.533301,-0.164331 0.229443,-0.164331 0.381372,-0.496094 l 0.350366,0.192236 q -0.21084,0.418579 -0.517798,0.617017 -0.303857,0.195337 -0.747241,0.195337 -0.604614,0 -0.979785,-0.403076 -0.372071,-0.406177 -0.372071,-1.063501 0,-0.675928 0.36897,-1.091407 0.37207,-0.415478 0.970484,-0.415478 0.570507,0 0.914672,0.384473 0.344165,0.381372 0.344165,1.020092 l 0,0.08372 z"
         style="font-style:normal;font-variant:normal;font-weight:normal;font-stretch:normal;font-size:6.3499999px;font-family:'Futura Lt BT';-inkscape-font-specification:'Futura Lt BT, Normal';text-align:start;writing-mode:lr-tb;text-anchor:start;stroke-width:0.24841234"
         id="path4097" />
      <path
         d="m 79.762869,41.127138 -0.505396,0 0,-0.325562 0.505396,0 0,-1.128613 0.375171,0 0,1.128613 0.551904,0 0,0.325562 -0.551904,0 0,2.424658 -0.375171,0 0,-2.424658 z"
         style="font-style:normal;font-variant:normal;font-weight:normal;font-stretch:normal;font-size:6.3499999px;font-family:'Futura Lt BT';-inkscape-font-specification:'Futura Lt BT, Normal';text-align:start;writing-mode:lr-tb;text-anchor:start;stroke-width:0.24841234"
         id="path4099" />
    </g>
    <g
       transform="scale(1.0041032,0.99591357)"
       style="font-style:normal;font-weight:normal;font-size:9.93649387px;line-height:1.25;font-family:sans-serif;letter-spacing:0px;word-spacing:0px;display:inline;fill:#000000;fill-opacity:1;stroke:none;stroke-width:0.24841234"
       id="text4806-8-0">
      <path
         d="m 78.282352,81.464934 q 0,-0.120923 0.08682,-0.204639 0.08682,-0.08682 0.207739,-0.08682 0.120923,0 0.20774,0.08682 0.08992,0.08372 0.08992,0.204639 0,0.124023 -0.08682,0.207739 -0.08372,0.08372 -0.21084,0.08372 -0.124023,0 -0.21084,-0.08372 -0.08371,-0.08372 -0.08371,-0.207739 z m 0.09612,3.823022 0,-2.750219 0.393774,0 0,2.750219 -0.393774,0 z"
         style="font-style:normal;font-variant:normal;font-weight:normal;font-stretch:normal;font-size:6.3499999px;font-family:'Futura Lt BT';-inkscape-font-specification:'Futura Lt BT';text-align:start;writing-mode:lr-tb;text-anchor:start;stroke-width:0.24841234"
         id="path4056" />
      <path
         d="m 79.817142,85.287956 0,-2.750219 0.362768,0 0,0.42478 q 0.167432,-0.26355 0.409278,-0.393775 0.244946,-0.133325 0.561206,-0.133325 0.468188,0 0.728637,0.260449 0.26045,0.26045 0.26045,0.725538 l 0,1.866552 -0.387574,0 0,-1.69602 q 0,-0.412378 -0.173633,-0.610816 -0.170532,-0.201538 -0.5302,-0.201538 -0.437182,0 -0.644922,0.260449 -0.204638,0.257349 -0.204638,0.812354 l 0,1.435571 -0.381372,0 z"
         style="font-style:normal;font-variant:normal;font-weight:normal;font-stretch:normal;font-size:6.3499999px;font-family:'Futura Lt BT';-inkscape-font-specification:'Futura Lt BT';text-align:start;writing-mode:lr-tb;text-anchor:start;stroke-width:0.24841234"
         id="path4058" />
      <path
         d="m 85.357889,83.9299 q 0,-0.533301 -0.244947,-0.837159 -0.241845,-0.306958 -0.669726,-0.306958 -0.440283,0 -0.691431,0.297657 -0.248047,0.294555 -0.248047,0.812353 0,0.5271 0.266651,0.84336 0.269751,0.313159 0.710034,0.313159 0.415478,0 0.644922,-0.294556 0.232544,-0.297656 0.232544,-0.827856 z m -2.229322,2.740918 0,-4.133081 0.36897,0 0,0.514697 q 0.15813,-0.297656 0.412378,-0.455786 0.254248,-0.161231 0.570508,-0.161231 0.57981,0 0.933276,0.409278 0.356568,0.406176 0.356568,1.079003 0,0.675928 -0.347266,1.082105 -0.347266,0.403076 -0.923975,0.403076 -0.331762,0 -0.58601,-0.15813 -0.254248,-0.16123 -0.415479,-0.471289 l 0,1.891358 -0.36897,0 z"
         style="font-style:normal;font-variant:normal;font-weight:normal;font-stretch:normal;font-size:6.3499999px;font-family:'Futura Lt BT';-inkscape-font-specification:'Futura Lt BT';text-align:start;writing-mode:lr-tb;text-anchor:start;stroke-width:0.24841234"
         id="path4060" />
      <path
         d="m 86.945388,82.537737 0,1.373559 q 0,0.626318 0.176734,0.883667 0.179834,0.257349 0.604614,0.257349 0.42168,0 0.604614,-0.26045 0.182935,-0.260449 0.182935,-0.880566 l 0,-1.373559 0.378271,0 0,1.568896 q 0,0.641821 -0.294556,0.973584 -0.294555,0.328662 -0.865063,0.328662 -0.573608,0 -0.871265,-0.328662 -0.297656,-0.331763 -0.297656,-0.973584 l 0,-1.568896 0.381372,0 z"
         style="font-style:normal;font-variant:normal;font-weight:normal;font-stretch:normal;font-size:6.3499999px;font-family:'Futura Lt BT';-inkscape-font-specification:'Futura Lt BT';text-align:start;writing-mode:lr-tb;text-anchor:start;stroke-width:0.24841234"
         id="path4062" />
      <path
         d="m 89.993264,82.863298 -0.505395,0 0,-0.325561 0.505395,0 0,-1.128614 0.375171,0 0,1.128614 0.551904,0 0,0.325561 -0.551904,0 0,2.424658 -0.375171,0 0,-2.424658 z"
         style="font-style:normal;font-variant:normal;font-weight:normal;font-stretch:normal;font-size:6.3499999px;font-family:'Futura Lt BT';-inkscape-font-specification:'Futura Lt BT';text-align:start;writing-mode:lr-tb;text-anchor:start;stroke-width:0.24841234"
         id="path4064" />
    </g>
    <g
       transform="scale(1.0041032,0.99591357)"
       style="font-style:normal;font-weight:normal;font-size:9.93649387px;line-height:1.25;font-family:sans-serif;letter-spacing:0px;word-spacing:0px;display:inline;fill:#000000;fill-opacity:1;stroke:none;stroke-width:0.24841234"
       id="text4806-3-0">
      <path
         d="m 100.81801,40.48702 0,1.37356 q 0,0.626318 0.17673,0.883667 0.17983,0.257348 0.60461,0.257348 0.42168,0 0.60462,-0.260449 0.18293,-0.260449 0.18293,-0.880566 l 0,-1.37356 0.37827,0 0,1.568897 q 0,0.641821 -0.29455,0.973584 -0.29456,0.328662 -0.86506,0.328662 -0.57361,0 -0.87127,-0.328662 -0.29766,-0.331763 -0.29766,-0.973584 l 0,-1.568897 0.38138,0 z"
         style="font-style:normal;font-variant:normal;font-weight:normal;font-stretch:normal;font-size:6.3499999px;font-family:'Futura Lt BT';-inkscape-font-specification:'Futura Lt BT';text-align:start;writing-mode:lr-tb;text-anchor:start;stroke-width:0.24841234"
         id="path4038" />
      <path
         d="m 106.01459,41.879183 q 0,-0.533301 -0.24495,-0.837158 -0.24184,-0.306958 -0.66972,-0.306958 -0.44029,0 -0.69143,0.297656 -0.24805,0.294556 -0.24805,0.812354 0,0.527099 0.26665,0.843359 0.26975,0.313159 0.71003,0.313159 0.41548,0 0.64492,-0.294555 0.23255,-0.297657 0.23255,-0.827857 z m -2.22932,2.740918 0,-4.133081 0.36897,0 0,0.514697 q 0.15813,-0.297656 0.41238,-0.455786 0.25424,-0.16123 0.5705,-0.16123 0.57981,0 0.93328,0.409277 0.35657,0.406177 0.35657,1.079004 0,0.675928 -0.34727,1.082105 -0.34726,0.403076 -0.92397,0.403076 -0.33177,0 -0.58601,-0.15813 -0.25425,-0.161231 -0.41548,-0.471289 l 0,1.891357 -0.36897,0 z"
         style="font-style:normal;font-variant:normal;font-weight:normal;font-stretch:normal;font-size:6.3499999px;font-family:'Futura Lt BT';-inkscape-font-specification:'Futura Lt BT';text-align:start;writing-mode:lr-tb;text-anchor:start;stroke-width:0.24841234"
         id="path4040" />
      <path
         d="m 107.40985,41.891586 q 0,0.5333 0.23875,0.821655 0.24184,0.288354 0.68833,0.288354 0.43098,0 0.67903,-0.313159 0.24804,-0.31626 0.24804,-0.868164 0,-0.505395 -0.24494,-0.79375 -0.24495,-0.291455 -0.67593,-0.291455 -0.43098,0 -0.68213,0.310059 -0.25115,0.306958 -0.25115,0.84646 z m 1.84795,1.345654 0,-0.502295 q -0.13642,0.306958 -0.38137,0.465088 -0.24495,0.15813 -0.57671,0.15813 -0.59221,0 -0.95498,-0.406177 -0.35967,-0.406177 -0.35967,-1.072803 0,-0.660425 0.35657,-1.075903 0.35657,-0.418579 0.92087,-0.418579 0.35037,0 0.60152,0.155029 0.25425,0.151929 0.39377,0.449585 l 0,-2.557983 0.38757,0 0,4.805908 -0.38757,0 z"
         style="font-style:normal;font-variant:normal;font-weight:normal;font-stretch:normal;font-size:6.3499999px;font-family:'Futura Lt BT';-inkscape-font-specification:'Futura Lt BT';text-align:start;writing-mode:lr-tb;text-anchor:start;stroke-width:0.24841234"
         id="path4042" />
      <path
         d="m 110.8329,41.891586 q 0,0.5333 0.23874,0.821655 0.24185,0.288354 0.68833,0.288354 0.43409,0 0.68213,-0.313159 0.25115,-0.31626 0.25115,-0.868164 0,-0.505395 -0.24805,-0.79375 -0.24804,-0.291455 -0.67902,-0.291455 -0.43099,0 -0.68213,0.310059 -0.25115,0.306958 -0.25115,0.84646 z m 1.85415,1.345654 0,-0.502295 q -0.13643,0.303857 -0.38447,0.465088 -0.24495,0.15813 -0.57981,0.15813 -0.59221,0 -0.95498,-0.406177 -0.35967,-0.406177 -0.35967,-1.072803 0,-0.660425 0.35657,-1.075903 0.35656,-0.418579 0.92087,-0.418579 0.35037,0 0.60461,0.155029 0.25735,0.151929 0.39688,0.449585 l 0,-0.502295 0.38137,0 0,2.75022 -0.38137,0 z"
         style="font-style:normal;font-variant:normal;font-weight:normal;font-stretch:normal;font-size:6.3499999px;font-family:'Futura Lt BT';-inkscape-font-specification:'Futura Lt BT';text-align:start;writing-mode:lr-tb;text-anchor:start;stroke-width:0.24841234"
         id="path4044" />
      <path
         d="m 114.17223,40.812582 -0.5054,0 0,-0.325562 0.5054,0 0,-1.128613 0.37517,0 0,1.128613 0.5519,0 0,0.325562 -0.5519,0 0,2.424658 -0.37517,0 0,-2.424658 z"
         style="font-style:normal;font-variant:normal;font-weight:normal;font-stretch:normal;font-size:6.3499999px;font-family:'Futura Lt BT';-inkscape-font-specification:'Futura Lt BT';text-align:start;writing-mode:lr-tb;text-anchor:start;stroke-width:0.24841234"
         id="path4046" />
      <path
         d="m 117.58908,41.547421 q -0.0279,-0.378272 -0.25115,-0.586011 -0.22324,-0.207739 -0.60462,-0.207739 -0.34726,0 -0.58291,0.217041 -0.23254,0.217041 -0.26975,0.576709 l 1.70843,0 z m 0.45268,0.325561 -2.18591,0 q 0.0155,0.533301 0.26665,0.837158 0.25115,0.303858 0.67283,0.303858 0.30385,0 0.5333,-0.164331 0.22944,-0.164331 0.38137,-0.496094 l 0.35037,0.192236 q -0.21084,0.418579 -0.5178,0.617017 -0.30386,0.195337 -0.74724,0.195337 -0.60462,0 -0.97979,-0.403076 -0.37207,-0.406177 -0.37207,-1.063501 0,-0.675928 0.36897,-1.091407 0.37207,-0.415478 0.97048,-0.415478 0.57051,0 0.91468,0.384472 0.34416,0.381373 0.34416,1.020093 l 0,0.08372 z"
         style="font-style:normal;font-variant:normal;font-weight:normal;font-stretch:normal;font-size:6.3499999px;font-family:'Futura Lt BT';-inkscape-font-specification:'Futura Lt BT';text-align:start;writing-mode:lr-tb;text-anchor:start;stroke-width:0.24841234"
         id="path4048" />
    </g>
    <g
       transform="scale(1.0041032,0.99591357)"
       style="font-style:normal;font-weight:normal;font-size:9.93649387px;line-height:1.25;font-family:sans-serif;letter-spacing:0px;word-spacing:0px;display:inline;fill:#000000;fill-opacity:1;stroke:none;stroke-width:0.24841234"
       id="text4806-81-5">
      <path
         d="m 150.38661,80.705586 q 0.45269,0 0.76585,-0.325561 0.31626,-0.328662 0.31626,-0.803052 0,-0.480591 -0.31316,-0.806152 -0.31316,-0.325562 -0.76895,-0.325562 -0.45268,0 -0.76584,0.325562 -0.31316,0.325561 -0.31316,0.806152 0,0.47439 0.31316,0.803052 0.31316,0.325561 0.76584,0.325561 z m -0.0124,0.356568 q -0.29455,0 -0.5643,-0.117823 -0.26975,-0.114721 -0.4899,-0.331762 -0.20774,-0.204639 -0.31626,-0.471289 -0.10852,-0.266651 -0.10852,-0.570508 0,-0.300757 0.11162,-0.570508 0.11163,-0.269751 0.31936,-0.47749 0.21084,-0.21084 0.4806,-0.322461 0.26975,-0.111621 0.5674,-0.111621 0.30386,0 0.57671,0.111621 0.27595,0.111621 0.48989,0.322461 0.21394,0.21084 0.32557,0.480591 0.11472,0.269751 0.11472,0.567407 0,0.297656 -0.11162,0.567407 -0.11162,0.26665 -0.32246,0.47439 -0.21705,0.217041 -0.4961,0.331762 -0.27595,0.117823 -0.57671,0.117823 z"
         style="font-style:normal;font-variant:normal;font-weight:normal;font-stretch:normal;font-size:6.3499999px;font-family:'Futura Lt BT';-inkscape-font-specification:'Futura Lt BT';text-align:start;writing-mode:lr-tb;text-anchor:start;stroke-width:0.24841234"
         id="path4007" />
      <path
         d="m 153.05312,78.191011 0,1.37356 q 0,0.626318 0.17673,0.883667 0.17984,0.257348 0.60462,0.257348 0.42168,0 0.60461,-0.260449 0.18294,-0.260449 0.18294,-0.880566 l 0,-1.37356 0.37827,0 0,1.568897 q 0,0.641821 -0.29456,0.973584 -0.29455,0.328662 -0.86506,0.328662 -0.57361,0 -0.87127,-0.328662 -0.29765,-0.331763 -0.29765,-0.973584 l 0,-1.568897 0.38137,0 z"
         style="font-style:normal;font-variant:normal;font-weight:normal;font-stretch:normal;font-size:6.3499999px;font-family:'Futura Lt BT';-inkscape-font-specification:'Futura Lt BT';text-align:start;writing-mode:lr-tb;text-anchor:start;stroke-width:0.24841234"
         id="path4009" />
      <path
         d="m 156.101,78.516573 -0.5054,0 0,-0.325562 0.5054,0 0,-1.128613 0.37517,0 0,1.128613 0.5519,0 0,0.325562 -0.5519,0 0,2.424658 -0.37517,0 0,-2.424658 z"
         style="font-style:normal;font-variant:normal;font-weight:normal;font-stretch:normal;font-size:6.3499999px;font-family:'Futura Lt BT';-inkscape-font-specification:'Futura Lt BT';text-align:start;writing-mode:lr-tb;text-anchor:start;stroke-width:0.24841234"
         id="path4011" />
      <path
         d="m 159.8372,79.583174 q 0,-0.533301 -0.24495,-0.837158 -0.24184,-0.306958 -0.66972,-0.306958 -0.44029,0 -0.69143,0.297656 -0.24805,0.294556 -0.24805,0.812354 0,0.527099 0.26665,0.843359 0.26975,0.313159 0.71003,0.313159 0.41548,0 0.64493,-0.294555 0.23254,-0.297657 0.23254,-0.827857 z m -2.22932,2.740918 0,-4.133081 0.36897,0 0,0.514697 q 0.15813,-0.297656 0.41238,-0.455786 0.25425,-0.16123 0.5705,-0.16123 0.57981,0 0.93328,0.409277 0.35657,0.406177 0.35657,1.079004 0,0.675928 -0.34727,1.082104 -0.34726,0.403077 -0.92397,0.403077 -0.33176,0 -0.58601,-0.15813 -0.25425,-0.161231 -0.41548,-0.471289 l 0,1.891357 -0.36897,0 z"
         style="font-style:normal;font-variant:normal;font-weight:normal;font-stretch:normal;font-size:6.3499999px;font-family:'Futura Lt BT';-inkscape-font-specification:'Futura Lt BT';text-align:start;writing-mode:lr-tb;text-anchor:start;stroke-width:0.24841234"
         id="path4013" />
      <path
         d="m 161.4247,78.191011 0,1.37356 q 0,0.626318 0.17673,0.883667 0.17984,0.257348 0.60462,0.257348 0.42168,0 0.60461,-0.260449 0.18294,-0.260449 0.18294,-0.880566 l 0,-1.37356 0.37827,0 0,1.568897 q 0,0.641821 -0.29456,0.973584 -0.29455,0.328662 -0.86506,0.328662 -0.57361,0 -0.87126,-0.328662 -0.29766,-0.331763 -0.29766,-0.973584 l 0,-1.568897 0.38137,0 z"
         style="font-style:normal;font-variant:normal;font-weight:normal;font-stretch:normal;font-size:6.3499999px;font-family:'Futura Lt BT';-inkscape-font-specification:'Futura Lt BT';text-align:start;writing-mode:lr-tb;text-anchor:start;stroke-width:0.24841234"
         id="path4015" />
      <path
         d="m 164.47258,78.516573 -0.5054,0 0,-0.325562 0.5054,0 0,-1.128613 0.37517,0 0,1.128613 0.5519,0 0,0.325562 -0.5519,0 0,2.424658 -0.37517,0 0,-2.424658 z"
         style="font-style:normal;font-variant:normal;font-weight:normal;font-stretch:normal;font-size:6.3499999px;font-family:'Futura Lt BT';-inkscape-font-specification:'Futura Lt BT';text-align:start;writing-mode:lr-tb;text-anchor:start;stroke-width:0.24841234"
         id="path4017" />
    </g>
    <text
       xml:space="preserve"
       style="font-style:normal;font-weight:normal;font-size:9.93649387px;line-height:1.25;font-family:sans-serif;letter-spacing:0px;word-spacing:0px;fill:#000000;fill-opacity:1;stroke:none;stroke-width:0.24841234"
       x="120.39843"
       y="34.902794"
       id="update_plus_text"
       transform="scale(1.0041032,0.99591357)"
       inkscape:label="#text6611"><tspan
         sodipodi:role="line"
         id="tspan6609"
         x="120.39843"
         y="34.902794"
         style="stroke-width:0.24841234">+</tspan></text>
    <g
       transform="scale(1.0054868,0.99454312)"
       style="font-style:normal;font-weight:normal;font-size:7.93694925px;line-height:1.25;font-family:sans-serif;letter-spacing:0px;word-spacing:0px;fill:#000000;fill-opacity:1;stroke:none;stroke-width:0.19842373"
       id="output_tanh_text">
      <path
         d="m 145.5935,61.245046 -0.30229,1.054126 0.60845,0 -0.0659,0.244154 -0.60457,0 -0.66658,2.286524 q -0.10852,0.368169 -0.10852,0.476682 0,0.06588 0.031,0.100762 0.031,0.03488 0.0736,0.03488 0.0969,0 0.25578,-0.135641 0.093,-0.07751 0.41468,-0.476682 l 0.12789,0.09689 q -0.35655,0.519312 -0.67433,0.732463 -0.21703,0.147267 -0.43793,0.147267 -0.17052,0 -0.27903,-0.104637 -0.10852,-0.108513 -0.10852,-0.275158 0,-0.209275 0.12402,-0.639452 l 0.6472,-2.243893 -0.5852,0 0.0388,-0.151143 q 0.4263,-0.116264 0.70921,-0.344916 0.28291,-0.232528 0.6317,-0.802221 l 0.17052,0 z"
         style="font-style:italic;font-variant:normal;font-weight:normal;font-stretch:normal;font-size:7.93694925px;font-family:'Times New Roman';-inkscape-font-specification:'Times New Roman, Italic';text-align:start;writing-mode:lr-tb;text-anchor:start;stroke-width:0.19842373"
         id="path4020" />
      <path
         d="m 149.45734,62.206161 -0.75572,2.627564 -0.0853,0.352667 q -0.0116,0.05038 -0.0116,0.08526 0,0.06201 0.0388,0.108513 0.031,0.03488 0.0775,0.03488 0.0504,0 0.13176,-0.06201 0.15115,-0.112388 0.40305,-0.465056 l 0.13177,0.09301 q -0.26741,0.403048 -0.55032,0.616198 -0.28291,0.209275 -0.52318,0.209275 -0.16665,0 -0.25191,-0.08526 -0.0814,-0.08138 -0.0814,-0.240279 0,-0.189897 0.0853,-0.499934 l 0.0814,-0.29066 q -0.50769,0.662704 -0.93399,0.926236 -0.30616,0.189897 -0.60069,0.189897 -0.28291,0 -0.48831,-0.232527 -0.2054,-0.236404 -0.2054,-0.647203 0,-0.616199 0.36817,-1.29828 0.37204,-0.685957 0.94174,-1.096756 0.44567,-0.325539 0.84097,-0.325539 0.2364,0 0.39142,0.124015 0.1589,0.124014 0.24028,0.410799 l 0.13952,-0.441803 0.6162,-0.09301 z m -1.37967,0.201524 q -0.24803,0 -0.52706,0.232528 -0.3953,0.329414 -0.70534,0.976616 -0.30616,0.647203 -0.30616,1.17039 0,0.263532 0.13177,0.41855 0.13176,0.151144 0.30229,0.151144 0.42242,0 0.91848,-0.62395 0.6627,-0.829349 0.6627,-1.701329 0,-0.329414 -0.12789,-0.476682 -0.12789,-0.147267 -0.34879,-0.147267 z"
         style="font-style:italic;font-variant:normal;font-weight:normal;font-stretch:normal;font-size:7.93694925px;font-family:'Times New Roman';-inkscape-font-specification:'Times New Roman, Italic';text-align:start;writing-mode:lr-tb;text-anchor:start;stroke-width:0.19842373"
         id="path4022" />
      <path
         d="m 151.4532,62.206161 -0.51544,1.763336 q 0.72472,-1.081255 1.10839,-1.422295 0.38754,-0.341041 0.74409,-0.341041 0.19377,0 0.31778,0.12789 0.12789,0.12789 0.12789,0.33329 0,0.232528 -0.11238,0.620074 l -0.47281,1.63157 q -0.0814,0.282909 -0.0814,0.344916 0,0.05426 0.031,0.09301 0.031,0.03488 0.0659,0.03488 0.0465,0 0.11239,-0.05038 0.2054,-0.16277 0.44955,-0.49606 l 0.12014,0.07363 q -0.36042,0.515437 -0.68208,0.736338 -0.22478,0.151143 -0.40305,0.151143 -0.14339,0 -0.22865,-0.08913 -0.0853,-0.08526 -0.0853,-0.232528 0,-0.186022 0.13177,-0.639452 l 0.44955,-1.557936 q 0.0853,-0.29066 0.0853,-0.453429 0,-0.07751 -0.0504,-0.124015 -0.0504,-0.05038 -0.12402,-0.05038 -0.10851,0 -0.25965,0.09301 -0.28679,0.174396 -0.59682,0.577444 -0.31004,0.399173 -0.65496,1.023123 -0.18214,0.329414 -0.30228,0.720836 l -0.19378,0.639451 -0.58132,0 0.70534,-2.42604 q 0.12401,-0.437927 0.12401,-0.527063 0,-0.08526 -0.0697,-0.147268 -0.0659,-0.06588 -0.16665,-0.06588 -0.0465,0 -0.16277,0.0155 l -0.14727,0.02325 -0.0232,-0.139517 1.34091,-0.240278 z"
         style="font-style:italic;font-variant:normal;font-weight:normal;font-stretch:normal;font-size:7.93694925px;font-family:'Times New Roman';-inkscape-font-specification:'Times New Roman, Italic';text-align:start;writing-mode:lr-tb;text-anchor:start;stroke-width:0.19842373"
         id="path4024" />
      <path
         d="m 155.99912,60.202546 -1.08901,3.763075 q 0.70534,-1.061877 1.10064,-1.410669 0.39529,-0.348791 0.75571,-0.348791 0.18602,0 0.31004,0.12789 0.12401,0.12789 0.12401,0.341041 0,0.25578 -0.10851,0.620074 l -0.47281,1.623819 q -0.0891,0.294535 -0.0891,0.325539 0,0.05426 0.031,0.08914 0.0349,0.03488 0.0775,0.03488 0.0504,0 0.11626,-0.05038 0.22091,-0.17052 0.43793,-0.472807 l 0.12014,0.07363 q -0.13176,0.2054 -0.36817,0.453429 -0.23253,0.244155 -0.40305,0.341041 -0.16664,0.09301 -0.29841,0.09301 -0.14339,0 -0.2364,-0.09301 -0.0891,-0.08913 -0.0891,-0.232528 0,-0.17052 0.13565,-0.635576 l 0.44567,-1.550185 q 0.0853,-0.29066 0.0853,-0.457305 0,-0.07751 -0.0504,-0.124015 -0.0465,-0.0465 -0.12401,-0.0465 -0.11239,0 -0.25578,0.08526 -0.26353,0.16277 -0.60845,0.604572 -0.093,0.12014 -0.62007,0.968866 -0.16277,0.271283 -0.26741,0.592946 l -0.24803,0.79447 -0.58132,0 1.27503,-4.43353 0.13564,-0.480558 q 0,-0.100762 -0.0853,-0.178271 -0.0814,-0.07751 -0.20153,-0.07751 -0.0697,0 -0.21315,0.02325 l -0.0814,0.01163 0,-0.151143 1.34091,-0.224777 z"
         style="font-style:italic;font-variant:normal;font-weight:normal;font-stretch:normal;font-size:7.93694925px;font-family:'Times New Roman';-inkscape-font-specification:'Times New Roman, Italic';text-align:start;writing-mode:lr-tb;text-anchor:start;stroke-width:0.19842373"
         id="path4026" />
    </g>
    <g
       transform="scale(1.0041032,0.99591357)"
       style="font-style:normal;font-weight:normal;font-size:9.93649387px;line-height:1.25;font-family:sans-serif;letter-spacing:0px;word-spacing:0px;fill:#000000;fill-opacity:1;stroke:none;stroke-width:0.24841234"
       id="text6650">
      <path
         d="m 82.313547,55.064776 q 0.168115,0 0.284195,0.116079 0.116079,0.11608 0.116079,0.284195 0,0.164112 -0.120082,0.284194 -0.11608,0.116079 -0.280192,0.116079 -0.164112,0 -0.284194,-0.116079 -0.11608,-0.120082 -0.11608,-0.284194 0,-0.168115 0.11608,-0.284195 0.116079,-0.116079 0.284194,-0.116079 z m 0.05204,1.589087 -0.792542,2.805919 q -0.08006,0.284194 -0.08006,0.340233 0,0.06404 0.03602,0.104071 0.04003,0.04003 0.09206,0.04003 0.06004,0 0.144098,-0.06404 0.228156,-0.180123 0.460315,-0.51235 l 0.140096,0.09206 q -0.272186,0.416285 -0.640438,0.700479 -0.272186,0.212145 -0.520356,0.212145 -0.164112,0 -0.268184,-0.09607 -0.104071,-0.100068 -0.104071,-0.248169 0,-0.148102 0.100069,-0.492337 l 0.520356,-1.793227 q 0.128087,-0.440301 0.128087,-0.552377 0,-0.08806 -0.06404,-0.144099 -0.06004,-0.05604 -0.168115,-0.05604 -0.08806,0 -0.364249,0.04403 l 0,-0.156107 1.380945,-0.224153 z"
         style="font-style:italic;font-variant:normal;font-weight:normal;font-stretch:normal;font-size:8.19760704px;line-height:1.25;font-family:'Times New Roman';-inkscape-font-specification:'Times New Roman, Italic';text-align:start;writing-mode:lr-tb;text-anchor:start;stroke-width:0.24841234"
         id="path4076" />
      <path
         d="m 84.130467,58.932326 -0.201835,0.703835 0.406257,0 -0.04399,0.163021 -0.40367,0 -0.445072,1.526701 q -0.07245,0.245824 -0.07245,0.318278 0,0.04399 0.0207,0.06728 0.0207,0.02329 0.04917,0.02329 0.06469,0 0.170783,-0.09057 0.0621,-0.05175 0.276877,-0.318278 l 0.08539,0.06469 q -0.238061,0.346742 -0.450247,0.489062 -0.144907,0.09833 -0.292402,0.09833 -0.113856,0 -0.186309,-0.06987 -0.07245,-0.07245 -0.07245,-0.183722 0,-0.139732 0.0828,-0.426958 l 0.432134,-1.498237 -0.390732,0 0.02588,-0.100918 q 0.284639,-0.07763 0.473536,-0.230299 0.188896,-0.155257 0.421783,-0.535639 l 0.113856,0 z"
         style="font-style:italic;font-variant:normal;font-weight:normal;font-stretch:normal;font-size:5.29946327px;font-family:'Times New Roman';-inkscape-font-specification:'Times New Roman, Italic';text-align:start;writing-mode:lr-tb;baseline-shift:sub;text-anchor:start;stroke-width:0.24841234"
         id="path4078" />
    </g>
    <g
       transform="scale(1.0041032,0.99591357)"
       style="font-style:normal;font-weight:normal;font-size:9.93649387px;line-height:1.25;font-family:sans-serif;letter-spacing:0px;word-spacing:0px;display:inline;fill:#000000;fill-opacity:1;stroke:none;stroke-width:0.24841234"
       id="text6650-6">
      <path
         d="m 8.9525595,28.071915 q 0.1961342,0.208143 0.2962026,0.416285 0.072049,0.144099 0.2361616,0.756518 l 0.3522409,-0.528362 q 0.1400958,-0.192131 0.3402324,-0.364249 0.200137,-0.17612 0.352241,-0.240164 0.09607,-0.04003 0.212145,-0.04003 0.172118,0 0.272186,0.09206 0.104072,0.09206 0.104072,0.224154 0,0.152104 -0.06004,0.208142 -0.112077,0.100069 -0.256176,0.100069 -0.08406,0 -0.180123,-0.03602 -0.188128,-0.06404 -0.252172,-0.06404 -0.09607,0 -0.228156,0.112077 -0.2481701,0.208142 -0.5924055,0.80455 l 0.3282245,1.376942 q 0.076052,0.316216 0.128088,0.38026 0.05203,0.06004 0.104071,0.06004 0.08406,0 0.196134,-0.09206 0.22015,-0.184126 0.376257,-0.480328 l 0.140096,0.07205 q -0.252172,0.472323 -0.640438,0.784536 -0.2201505,0.176121 -0.3722546,0.176121 -0.2241533,0 -0.3562436,-0.252173 -0.084058,-0.156106 -0.3482382,-1.34492 -0.6244271,1.084742 -1.0006845,1.396956 -0.244167,0.200137 -0.4723231,0.200137 -0.1601095,0 -0.2921998,-0.11608 -0.096066,-0.08806 -0.096066,-0.236161 0,-0.13209 0.08806,-0.220151 0.08806,-0.08806 0.2161479,-0.08806 0.1280876,0 0.2721861,0.128088 0.1040712,0.09206 0.1601095,0.09206 0.048033,0 0.1240849,-0.06404 Q 8.2921078,31.13401 8.6163295,30.629665 8.9405513,30.12532 9.0406198,29.901167 8.79245,28.928501 8.7724363,28.872463 8.6803734,28.612285 8.5322721,28.504211 8.3841708,28.396137 8.0959736,28.396137 q -0.092063,0 -0.2121451,0.008 l 0,-0.144099 1.068731,-0.188129 z"
         style="font-style:italic;font-variant:normal;font-weight:normal;font-stretch:normal;font-size:8.19760704px;line-height:1.25;font-family:'Times New Roman';-inkscape-font-specification:'Times New Roman, Italic';text-align:start;writing-mode:lr-tb;text-anchor:start;stroke-width:0.24841234"
         id="path4114" />
      <path
         d="m 12.542692,30.350379 -0.201835,0.703835 0.406258,0 -0.04399,0.16302 -0.40367,0 -0.445072,1.526701 q -0.07245,0.245825 -0.07245,0.318279 0,0.04399 0.0207,0.06728 0.0207,0.02329 0.04916,0.02329 0.06469,0 0.170784,-0.09057 0.0621,-0.05175 0.276876,-0.318279 l 0.08539,0.06469 q -0.238062,0.346742 -0.450248,0.489062 -0.144907,0.09833 -0.292402,0.09833 -0.113855,0 -0.186309,-0.06987 -0.07245,-0.07245 -0.07245,-0.183722 0,-0.139732 0.0828,-0.426959 l 0.432134,-1.498237 -0.390731,0 0.02588,-0.100917 q 0.284639,-0.07763 0.473536,-0.230299 0.188897,-0.155258 0.421783,-0.535639 l 0.113856,0 z"
         style="font-style:italic;font-variant:normal;font-weight:normal;font-stretch:normal;font-size:5.29946327px;font-family:'Times New Roman';-inkscape-font-specification:'Times New Roman, Italic';text-align:start;writing-mode:lr-tb;baseline-shift:sub;text-anchor:start;stroke-width:0.24841234"
         id="path4116" />
    </g>
    <g
       transform="scale(1.0041032,0.99591357)"
       style="font-style:normal;font-weight:normal;font-size:9.93649387px;line-height:1.25;font-family:sans-serif;letter-spacing:0px;word-spacing:0px;display:inline;fill:#000000;fill-opacity:1;stroke:none;stroke-width:0.24841234"
       id="text6650-62">
      <path
         d="m 7.5150115,42.664189 q 0.136093,0.232159 0.1881286,0.436299 0.052036,0.200136 0.1040712,0.792542 l 0.1761205,1.969347 q 0.2401643,-0.288197 0.6964764,-0.912625 0.2201505,-0.304208 0.5443723,-0.828566 0.1961342,-0.320219 0.2401643,-0.448307 0.024016,-0.06404 0.024016,-0.13209 0,-0.04403 -0.028019,-0.07205 -0.028019,-0.02802 -0.1481013,-0.06404 -0.1160794,-0.04003 -0.1961341,-0.140096 -0.076052,-0.104071 -0.076052,-0.236162 0,-0.164112 0.096066,-0.26418 0.096066,-0.100069 0.2401642,-0.100069 0.1761205,0 0.3002054,0.148101 0.1240849,0.144099 0.1240849,0.400274 0,0.316217 -0.2161479,0.724496 -0.2161478,0.404276 -0.8325695,1.244851 -0.6164216,0.840575 -1.4930212,1.833254 -0.6044134,0.684468 -0.8966132,0.860589 -0.2921999,0.180123 -0.5003423,0.180123 -0.1240848,0 -0.2161478,-0.09607 -0.096066,-0.09206 -0.096066,-0.216148 0,-0.156106 0.1320903,-0.284194 0.1280877,-0.128088 0.2801917,-0.128088 0.080055,0 0.1320903,0.03603 0.032022,0.02001 0.072049,0.112077 0.036025,0.09606 0.068047,0.128087 0.020014,0.02001 0.048033,0.02001 0.024016,0 0.084058,-0.04003 0.2201506,-0.136093 0.5123505,-0.432296 0.3842628,-0.392268 0.5683887,-0.640438 L 7.2228116,43.977087 Q 7.1667733,43.348657 7.0546966,43.212564 6.94262,43.076471 6.6784393,43.076471 q -0.084058,0 -0.3002054,0.02402 l -0.036025,-0.148102 1.1728022,-0.288197 z m 1.8932949,-1.929319 0.3002054,1.264865 -0.084058,0 -0.6764627,-0.808553 -1.2768734,0.808553 -0.1080739,0 1.2448515,-1.264865 0.6004106,0 z"
         style="font-style:italic;font-variant:normal;font-weight:normal;font-stretch:normal;font-size:8.19760704px;line-height:1.25;font-family:'Times New Roman';-inkscape-font-specification:'Times New Roman, Italic';text-align:start;writing-mode:lr-tb;text-anchor:start;stroke-width:0.24841234"
         id="path4105" />
      <path
         d="m 11.217221,44.942653 -0.201835,0.703834 0.406257,0 -0.04399,0.163021 -0.403671,0 -0.445072,1.526701 q -0.07245,0.245825 -0.07245,0.318278 0,0.04399 0.0207,0.06728 0.0207,0.02329 0.04917,0.02329 0.06469,0 0.170783,-0.09057 0.0621,-0.05175 0.276876,-0.318278 l 0.08539,0.06469 q -0.238062,0.346742 -0.450247,0.489061 -0.144907,0.09833 -0.292402,0.09833 -0.113856,0 -0.186309,-0.06987 -0.07245,-0.07245 -0.07245,-0.183721 0,-0.139732 0.0828,-0.426959 l 0.432134,-1.498237 -0.390732,0 0.02588,-0.100917 q 0.28464,-0.07763 0.473536,-0.230299 0.188897,-0.155258 0.421784,-0.535639 l 0.113856,0 z"
         style="font-style:italic;font-variant:normal;font-weight:normal;font-stretch:normal;font-size:5.29946327px;font-family:'Times New Roman';-inkscape-font-specification:'Times New Roman, Italic';text-align:start;writing-mode:lr-tb;baseline-shift:sub;text-anchor:start;stroke-width:0.24841234"
         id="path4107" />
      <path
         d="m 12.896592,46.60391 -0.106093,0.344155 -1.340392,0 0.106093,-0.344155 1.340392,0 z"
         style="font-style:italic;font-variant:normal;font-weight:normal;font-stretch:normal;font-size:5.29946327px;font-family:'Times New Roman';-inkscape-font-specification:'Times New Roman, Italic';text-align:start;writing-mode:lr-tb;baseline-shift:sub;text-anchor:start;stroke-width:0.24841234"
         id="path4109" />
      <path
         d="m 15.292736,44.34491 -0.833217,2.900732 q -0.07245,0.256175 -0.07245,0.370031 0,0.09574 0.06469,0.147495 0.06728,0.04917 0.310516,0.06728 l -0.02588,0.09574 -1.332628,0 0.03623,-0.09574 q 0.212185,-0.0052 0.279463,-0.03364 0.108681,-0.04658 0.163021,-0.124206 0.08539,-0.119031 0.173371,-0.426959 l 0.60033,-2.083041 q 0.05434,-0.188897 0.05951,-0.217361 0.0078,-0.05175 0.0078,-0.100917 0,-0.09057 -0.04917,-0.14232 -0.04916,-0.05175 -0.134556,-0.05175 -0.06728,0 -0.209598,0.03105 l -0.03364,-0.09316 0.87203,-0.243237 0.124207,0 z"
         style="font-style:italic;font-variant:normal;font-weight:normal;font-stretch:normal;font-size:5.29946327px;font-family:'Times New Roman';-inkscape-font-specification:'Times New Roman, Italic';text-align:start;writing-mode:lr-tb;baseline-shift:sub;text-anchor:start;stroke-width:0.24841234"
         id="path4111" />
    </g>
    <g
       transform="scale(1.0041032,0.99591357)"
       style="font-style:normal;font-weight:normal;font-size:9.93649387px;line-height:1.25;font-family:sans-serif;letter-spacing:0px;word-spacing:0px;display:inline;fill:#000000;fill-opacity:1;stroke:none;stroke-width:0.24841234"
       id="text6650-3">
      <path
         d="m 163.16237,94.904185 q 0,0.413411 -0.22048,0.818554 -0.21773,0.405144 -0.6091,0.642166 -0.39136,0.237023 -0.76067,0.237023 -0.37759,0 -0.61736,-0.239779 -0.23703,-0.242535 -0.23703,-0.625629 0,-0.405144 0.23151,-0.813043 0.23427,-0.407899 0.62288,-0.644922 0.39136,-0.237022 0.75516,-0.237022 0.3638,0 0.59807,0.239778 0.23702,0.239779 0.23702,0.622874 z m -0.45751,-0.19017 q 0,-0.256315 -0.12678,-0.391362 -0.12402,-0.137804 -0.32246,-0.137804 -0.40514,0 -0.74689,0.581532 -0.339,0.578776 -0.339,1.15204 0,0.261827 0.13229,0.405143 0.13229,0.14056 0.33349,0.14056 0.3886,0 0.7276,-0.57602 0.34175,-0.578776 0.34175,-1.174089 z"
         style="font-style:italic;font-variant:normal;font-weight:normal;font-stretch:normal;font-size:5.64444447px;line-height:1.25;font-family:'Times New Roman';-inkscape-font-specification:'Times New Roman, Italic';text-align:start;writing-mode:lr-tb;text-anchor:start;stroke-width:0.24841234"
         id="path3999" />
      <path
         d="m 164.5659,95.082744 -0.17466,0.609093 0.35157,0 -0.0381,0.141076 -0.34933,0 -0.38516,1.321195 q -0.0627,0.212734 -0.0627,0.275435 0,0.03807 0.0179,0.05822 0.0179,0.02015 0.0426,0.02015 0.056,0 0.14779,-0.07838 0.0537,-0.04479 0.23961,-0.275435 l 0.0739,0.05598 q -0.20602,0.300068 -0.38964,0.42323 -0.12541,0.08509 -0.25305,0.08509 -0.0985,0 -0.16123,-0.06046 -0.0627,-0.0627 -0.0627,-0.158991 0,-0.120923 0.0717,-0.369487 l 0.37397,-1.296562 -0.33814,0 0.0224,-0.08733 q 0.24633,-0.06718 0.4098,-0.199298 0.16347,-0.134359 0.365,-0.463538 l 0.0985,0 z"
         style="font-style:italic;font-variant:normal;font-weight:normal;font-stretch:normal;font-size:4.58611107px;font-family:'Times New Roman';-inkscape-font-specification:'Times New Roman, Italic';text-align:start;writing-mode:lr-tb;baseline-shift:sub;text-anchor:start;stroke-width:0.24841234"
         id="path4001" />
    </g>
    <g
       transform="scale(1.0041032,0.99591357)"
       style="font-style:normal;font-weight:normal;font-size:9.93649387px;line-height:1.25;font-family:sans-serif;letter-spacing:0px;word-spacing:0px;display:inline;fill:#000000;fill-opacity:1;stroke:none;stroke-width:0.24841234"
       id="text6650-62-7">
      <path
         d="m 198.2687,60.851849 q 0.1361,0.232159 0.18813,0.436299 0.052,0.200137 0.10407,0.792542 l 0.17612,1.969347 q 0.24017,-0.288197 0.69648,-0.912624 0.22015,-0.304208 0.54437,-0.828567 0.19614,-0.320219 0.24017,-0.448307 0.024,-0.06404 0.024,-0.13209 0,-0.04403 -0.028,-0.07205 -0.028,-0.02802 -0.1481,-0.06404 -0.11608,-0.04003 -0.19613,-0.140096 -0.0761,-0.104071 -0.0761,-0.236161 0,-0.164113 0.0961,-0.264181 0.0961,-0.100069 0.24017,-0.100069 0.17612,0 0.3002,0.148102 0.12409,0.144098 0.12409,0.400273 0,0.316217 -0.21615,0.724496 -0.21615,0.404277 -0.83257,1.244851 -0.61642,0.840575 -1.49302,1.833254 -0.60442,0.684469 -0.89661,0.860589 -0.2922,0.180123 -0.50035,0.180123 -0.12408,0 -0.21614,-0.09607 -0.0961,-0.09206 -0.0961,-0.216147 0,-0.156107 0.13209,-0.284195 0.12809,-0.128087 0.28019,-0.128087 0.0801,0 0.13209,0.03602 0.032,0.02001 0.072,0.112077 0.036,0.09607 0.068,0.128088 0.02,0.02001 0.048,0.02001 0.024,0 0.0841,-0.04003 0.22015,-0.136093 0.51235,-0.432296 0.38426,-0.392268 0.56839,-0.640438 l -0.22416,-2.537736 q -0.056,-0.628429 -0.16811,-0.764523 -0.11208,-0.136093 -0.37626,-0.136093 -0.0841,0 -0.3002,0.02402 l -0.036,-0.148102 1.1728,-0.288197 z m 1.8933,-1.929319 0.3002,1.264865 -0.084,0 -0.67647,-0.808553 -1.27687,0.808553 -0.10807,0 1.24485,-1.264865 0.60041,0 z"
         style="font-style:italic;font-variant:normal;font-weight:normal;font-stretch:normal;font-size:8.19760704px;line-height:1.25;font-family:'Times New Roman';-inkscape-font-specification:'Times New Roman, Italic';text-align:start;writing-mode:lr-tb;text-anchor:start;stroke-width:0.24841234"
         id="path3994" />
      <path
         d="m 201.97091,63.130313 -0.20183,0.703835 0.40626,0 -0.044,0.16302 -0.40367,0 -0.44508,1.526701 q -0.0725,0.245825 -0.0725,0.318278 0,0.04399 0.0207,0.06728 0.0207,0.02329 0.0492,0.02329 0.0647,0 0.17078,-0.09057 0.0621,-0.05175 0.27688,-0.318278 l 0.0854,0.06469 q -0.23806,0.346742 -0.45025,0.489062 -0.14491,0.09833 -0.2924,0.09833 -0.11386,0 -0.18631,-0.06987 -0.0725,-0.07245 -0.0725,-0.183722 0,-0.139732 0.0828,-0.426959 l 0.43213,-1.498237 -0.39073,0 0.0259,-0.100917 q 0.28464,-0.07763 0.47353,-0.230299 0.1889,-0.155258 0.42179,-0.535639 l 0.11385,0 z"
         style="font-style:italic;font-variant:normal;font-weight:normal;font-stretch:normal;font-size:5.29946327px;font-family:'Times New Roman';-inkscape-font-specification:'Times New Roman, Italic';text-align:start;writing-mode:lr-tb;baseline-shift:sub;text-anchor:start;stroke-width:0.24841234"
         id="path3996" />
    </g>
    <g
       transform="scale(1.0041032,0.99591357)"
       style="font-style:normal;font-weight:normal;font-size:9.93649387px;line-height:1.25;font-family:sans-serif;letter-spacing:0px;word-spacing:0px;display:inline;fill:#000000;fill-opacity:1;stroke:none;stroke-width:0.24841234"
       id="text6650-62-9">
      <path
         d="m 201.48569,28.758166 -0.40428,1.757202 -0.1441,0 -0.016,-0.440301 q -0.02,-0.240165 -0.0921,-0.428293 -0.072,-0.188129 -0.21615,-0.324222 -0.1441,-0.140096 -0.36425,-0.216148 -0.22015,-0.08006 -0.48833,-0.08006 -0.71649,0 -1.25286,0.392269 -0.68447,0.500342 -1.07273,1.412966 -0.32022,0.752515 -0.32022,1.525043 0,0.78854 0.46031,1.260863 0.46032,0.46832 1.19682,0.46832 0.55638,0 0.98868,-0.24817 0.4363,-0.24817 0.80855,-0.764523 l 0.18813,0 q -0.4403,0.700479 -0.97667,1.032707 -0.53637,0.328224 -1.28488,0.328224 -0.66445,0 -1.1768,-0.276189 -0.51235,-0.280191 -0.78054,-0.784536 -0.26818,-0.504345 -0.26818,-1.084742 0,-0.888608 0.47633,-1.729183 0.47632,-0.840575 1.30489,-1.320904 0.83257,-0.480328 1.67715,-0.480328 0.39627,0 0.8886,0.188129 0.21615,0.08005 0.31222,0.08005 0.0961,0 0.16811,-0.04003 0.072,-0.04003 0.24017,-0.228156 l 0.1481,0 z"
         style="font-style:italic;font-variant:normal;font-weight:normal;font-stretch:normal;font-size:8.19760704px;line-height:1.25;font-family:'Times New Roman';-inkscape-font-specification:'Times New Roman, Italic';text-align:start;writing-mode:lr-tb;text-anchor:start;stroke-width:0.24841234"
         id="path3989" />
      <path
         d="m 202.57011,32.965949 -0.20184,0.703835 0.40626,0 -0.044,0.16302 -0.40367,0 -0.44507,1.526701 q -0.0725,0.245825 -0.0725,0.318279 0,0.04399 0.0207,0.06728 0.0207,0.02329 0.0492,0.02329 0.0647,0 0.17078,-0.09057 0.0621,-0.05175 0.27688,-0.318279 l 0.0854,0.06469 q -0.23806,0.346742 -0.45025,0.489062 -0.1449,0.09833 -0.2924,0.09833 -0.11385,0 -0.18631,-0.06987 -0.0725,-0.07245 -0.0725,-0.183722 0,-0.139732 0.0828,-0.426959 l 0.43214,-1.498237 -0.39073,0 0.0259,-0.100917 q 0.28464,-0.07763 0.47354,-0.230299 0.18889,-0.155258 0.42178,-0.535639 l 0.11386,0 z"
         style="font-style:italic;font-variant:normal;font-weight:normal;font-stretch:normal;font-size:5.29946327px;font-family:'Times New Roman';-inkscape-font-specification:'Times New Roman, Italic';text-align:start;writing-mode:lr-tb;baseline-shift:sub;text-anchor:start;stroke-width:0.24841234"
         id="path3991" />
    </g>
    <g
       transform="scale(1.0041032,0.99591357)"
       style="font-style:normal;font-weight:normal;font-size:9.93649387px;line-height:1.25;font-family:sans-serif;letter-spacing:0px;word-spacing:0px;display:inline;fill:#000000;fill-opacity:1;stroke:none;stroke-width:0.24841234"
       id="text4806-3-0-1">
      <path
         d="m 142.79756,22.675144 0,-9.078515 1.47588,0 0,7.757666 3.29903,0 0,1.320849 -4.77491,0 z"
         style="font-style:normal;font-variant:normal;font-weight:normal;font-stretch:normal;font-size:12.69999981px;font-family:'Futura Md BT';-inkscape-font-specification:'Futura Md BT';text-align:start;writing-mode:lr-tb;text-anchor:start;stroke-width:0.24841234"
         id="path4029" />
      <path
         d="m 148.2546,20.858201 1.17822,-0.545703 q 0.16743,0.607715 0.61391,0.930176 0.44649,0.316259 1.14102,0.316259 0.65732,0 1.0418,-0.365869 0.39067,-0.365869 0.39067,-0.979785 0,-0.799951 -1.32705,-1.42627 -0.18604,-0.09302 -0.28525,-0.136425 -1.50069,-0.731739 -2.00298,-1.32085 -0.4961,-0.595312 -0.4961,-1.451074 0,-1.11001 0.75035,-1.79834 0.75654,-0.68833 1.97817,-0.68833 1.00459,0 1.68052,0.390674 0.67592,0.384473 0.93637,1.11001 l -1.15341,0.595312 q -0.27286,-0.427881 -0.60152,-0.626318 -0.32246,-0.198438 -0.74414,-0.198438 -0.59531,0 -0.94878,0.310059 -0.34726,0.310058 -0.34726,0.830957 0,0.818555 1.53789,1.525488 0.11782,0.05581 0.18603,0.08682 1.34566,0.620117 1.84795,1.215429 0.5023,0.589112 0.5023,1.475879 0,1.289844 -0.81236,2.052588 -0.81235,0.756543 -2.19521,0.756543 -1.15962,0 -1.90376,-0.533301 -0.73794,-0.533301 -0.96738,-1.525488 z"
         style="font-style:normal;font-variant:normal;font-weight:normal;font-stretch:normal;font-size:12.69999981px;font-family:'Futura Md BT';-inkscape-font-specification:'Futura Md BT';text-align:start;writing-mode:lr-tb;text-anchor:start;stroke-width:0.24841234"
         id="path4031" />
      <path
         d="m 158.67877,14.849265 0,7.825879 -1.47588,0 0,-7.825879 -2.41226,0 0,-1.252636 6.28799,0 0,1.252636 -2.39985,0 z"
         style="font-style:normal;font-variant:normal;font-weight:normal;font-stretch:normal;font-size:12.69999981px;font-family:'Futura Md BT';-inkscape-font-specification:'Futura Md BT';text-align:start;writing-mode:lr-tb;text-anchor:start;stroke-width:0.24841234"
         id="path4033" />
      <path
         d="m 169.62383,18.191697 q -0.0248,-0.10542 -0.0806,-0.58291 -0.0496,-0.396875 -0.0868,-0.657324 -0.0558,0.310058 -0.16123,0.620117 -0.0992,0.310058 -0.25425,0.632519 l -2.37505,4.836914 -2.37504,-4.936132 q -0.14883,-0.303858 -0.26045,-0.589112 -0.10542,-0.285254 -0.18604,-0.564306 -0.006,0.285254 -0.0496,0.601513 -0.0372,0.310059 -0.11782,0.651123 l -0.97358,4.471045 -1.35806,0 2.1456,-9.462988 2.67891,5.729883 q 0.062,0.136426 0.18604,0.452685 0.13022,0.31626 0.31005,0.781348 0.13023,-0.390674 0.40928,-0.992188 0.0744,-0.16123 0.11162,-0.248046 l 2.6169,-5.723682 2.19521,9.462988 -1.37046,0 -1.00459,-4.483447 z"
         style="font-style:normal;font-variant:normal;font-weight:normal;font-stretch:normal;font-size:12.69999981px;font-family:'Futura Md BT';-inkscape-font-specification:'Futura Md BT';text-align:start;writing-mode:lr-tb;text-anchor:start;stroke-width:0.24841234"
         id="path4035" />
    </g>
    <g
       transform="scale(1.0041032,0.99591357)"
       style="font-style:normal;font-weight:normal;font-size:9.93649387px;line-height:1.25;font-family:sans-serif;letter-spacing:0px;word-spacing:0px;display:inline;fill:#000000;fill-opacity:1;stroke:none;stroke-width:0.24841234"
       id="text6650-5">
      <path
         d="m 84.510778,33.784912 -0.0524,0.192131 -0.425018,0 -0.320219,1.272143 q -0.212509,0.841303 -0.427929,1.301254 -0.305664,0.649171 -0.657905,0.896613 -0.267819,0.18922 -0.535639,0.18922 -0.174665,0 -0.29693,-0.104799 -0.09024,-0.07278 -0.09024,-0.18922 0,-0.09315 0.07569,-0.163021 0.07278,-0.06695 0.180487,-0.06695 0.0786,0 0.13391,0.04949 0.0524,0.04949 0.0524,0.113532 0,0.06404 -0.06113,0.119355 -0.04658,0.04075 -0.04658,0.06113 0,0.0262 0.02038,0.04075 0.0262,0.02038 0.08151,0.02038 0.125176,0 0.264908,-0.0786 0.136821,-0.0786 0.244531,-0.235798 0.10771,-0.154287 0.203776,-0.448307 0.04076,-0.122265 0.218331,-0.806369 l 0.506528,-1.970803 -0.506528,0 0.04076,-0.192131 q 0.24162,0 0.337686,-0.03202 0.09607,-0.03493 0.174664,-0.128088 0.08151,-0.09607 0.209598,-0.355152 0.171754,-0.34933 0.328953,-0.541461 0.21542,-0.259087 0.451217,-0.387174 0.238709,-0.130999 0.448307,-0.130999 0.221242,0 0.355152,0.113532 0.13391,0.110621 0.13391,0.24162 0,0.101888 -0.06696,0.171754 -0.06695,0.06987 -0.171754,0.06987 -0.09024,0 -0.148465,-0.0524 -0.05531,-0.0524 -0.05531,-0.125176 0,-0.04658 0.03784,-0.113532 0.03785,-0.06987 0.03785,-0.09316 0,-0.04075 -0.0262,-0.06113 -0.03784,-0.02911 -0.110621,-0.02911 -0.183399,0 -0.328953,0.116443 -0.195042,0.154287 -0.34933,0.483239 -0.0786,0.171754 -0.288197,0.852948 l 0.427929,0 z"
         style="font-size:5.96189642px;stroke-width:0.24841234"
         id="path4084" />
      <path
         d="m 85.773865,35.005561 -0.201835,0.703835 0.406257,0 -0.04399,0.16302 -0.40367,0 -0.445073,1.526701 q -0.07245,0.245825 -0.07245,0.318278 0,0.04399 0.0207,0.06728 0.0207,0.02329 0.04916,0.02329 0.06469,0 0.170783,-0.09057 0.0621,-0.05175 0.276877,-0.318278 l 0.08539,0.06469 q -0.238062,0.346742 -0.450247,0.489062 -0.144907,0.09833 -0.292402,0.09833 -0.113856,0 -0.186309,-0.06987 -0.07245,-0.07245 -0.07245,-0.183722 0,-0.139732 0.0828,-0.426959 l 0.432134,-1.498237 -0.390732,0 0.02588,-0.100917 q 0.28464,-0.07763 0.473537,-0.230299 0.188896,-0.155258 0.421783,-0.535639 l 0.113856,0 z"
         style="font-style:italic;font-variant:normal;font-weight:normal;font-stretch:normal;font-size:5.29946327px;font-family:'Times New Roman';-inkscape-font-specification:'Times New Roman, Italic';text-align:start;writing-mode:lr-tb;baseline-shift:sub;text-anchor:start;stroke-width:0.24841234"
         id="path4086" />
    </g>
    <g
       transform="scale(1.0041032,0.99591357)"
       style="font-style:normal;font-weight:normal;font-size:9.93649387px;line-height:1.25;font-family:sans-serif;letter-spacing:0px;word-spacing:0px;display:inline;fill:#000000;fill-opacity:1;stroke:none;stroke-width:0.24841234"
       id="text6650-6-5">
      <path
         d="m 8.856192,7.6700778 -0.4042765,1.7572019 -0.1440986,0 L 8.291806,8.9869786 Q 8.2717923,8.7468143 8.199743,8.5586856 8.1276937,8.370557 7.9835952,8.2344639 7.8394966,8.0943681 7.619346,8.018316 7.3991954,7.9382613 7.131012,7.9382613 q -0.7164901,0 -1.2528569,0.3922683 -0.6844682,0.5003422 -1.0727338,1.4129664 -0.320219,0.752515 -0.320219,1.525043 0,0.788539 0.4603149,1.260863 0.4603148,0.46832 1.1968186,0.46832 0.5563805,0 0.9886762,-0.24817 0.4362984,-0.24817 0.8085531,-0.764523 l 0.1881286,0 q -0.4403011,0.700479 -0.976668,1.032707 -0.5363669,0.328224 -1.2848788,0.328224 -0.6644545,0 -1.176805,-0.276189 Q 4.1769915,12.78958 3.9088081,12.285235 3.6406246,11.78089 3.6406246,11.200493 q 0,-0.888608 0.4763258,-1.7291831 0.4763258,-0.840575 1.3048926,-1.3209035 0.8325694,-0.4803286 1.6771471,-0.4803286 0.3962711,0 0.8886078,0.1881287 0.2161478,0.080055 0.3122136,0.080055 0.096066,0 0.1681149,-0.040027 0.072049,-0.040027 0.2401643,-0.2281561 l 0.1481013,0 z"
         style="font-style:italic;font-variant:normal;font-weight:normal;font-stretch:normal;font-size:8.19760704px;line-height:1.25;font-family:'Times New Roman';-inkscape-font-specification:'Times New Roman, Italic';text-align:start;writing-mode:lr-tb;text-anchor:start;stroke-width:0.24841234"
         id="path4119" />
      <path
         d="m 9.9406104,11.877861 -0.201835,0.703835 0.4062576,0 -0.04399,0.16302 -0.4036697,0 -0.4450721,1.526701 q -0.072454,0.245825 -0.072454,0.318279 0,0.04399 0.020701,0.06728 0.020701,0.02329 0.049165,0.02329 0.064691,0 0.1707835,-0.09057 0.062103,-0.05175 0.2768762,-0.318279 l 0.085392,0.06469 Q 9.5447032,14.68285 9.3325177,14.82517 9.1876105,14.9235 9.0401157,14.9235 q -0.1138557,0 -0.1863093,-0.06987 -0.072454,-0.07245 -0.072454,-0.183722 0,-0.139732 0.082804,-0.426959 l 0.432134,-1.498237 -0.3907319,0 0.025876,-0.100917 Q 9.2160744,12.56617 9.4049713,12.4135 9.5938682,12.258242 9.8267548,11.877861 l 0.1138556,0 z"
         style="font-style:italic;font-variant:normal;font-weight:normal;font-stretch:normal;font-size:5.29946327px;font-family:'Times New Roman';-inkscape-font-specification:'Times New Roman, Italic';text-align:start;writing-mode:lr-tb;baseline-shift:sub;text-anchor:start;stroke-width:0.24841234"
         id="path4121" />
      <path
         d="m 11.619982,13.539118 -0.106093,0.344155 -1.340392,0 0.106093,-0.344155 1.340392,0 z"
         style="font-style:italic;font-variant:normal;font-weight:normal;font-stretch:normal;font-size:5.29946327px;font-family:'Times New Roman';-inkscape-font-specification:'Times New Roman, Italic';text-align:start;writing-mode:lr-tb;baseline-shift:sub;text-anchor:start;stroke-width:0.24841234"
         id="path4123" />
      <path
         d="m 14.016125,11.280119 -0.833216,2.900731 q -0.07245,0.256175 -0.07245,0.370031 0,0.09574 0.06469,0.147495 0.06728,0.04917 0.310515,0.06728 l -0.02588,0.09574 -1.332629,0 0.03623,-0.09574 q 0.212186,-0.0052 0.279464,-0.03364 0.10868,-0.04658 0.163021,-0.124206 0.08539,-0.119031 0.173371,-0.426959 l 0.60033,-2.083041 q 0.05434,-0.188897 0.05951,-0.217361 0.0078,-0.05175 0.0078,-0.100917 0,-0.09057 -0.04917,-0.14232 -0.04917,-0.05175 -0.134557,-0.05175 -0.06728,0 -0.209598,0.03105 l -0.03364,-0.09315 0.872031,-0.243237 0.124206,0 z"
         style="font-style:italic;font-variant:normal;font-weight:normal;font-stretch:normal;font-size:5.29946327px;font-family:'Times New Roman';-inkscape-font-specification:'Times New Roman, Italic';text-align:start;writing-mode:lr-tb;baseline-shift:sub;text-anchor:start;stroke-width:0.24841234"
         id="path4125" />
    </g>
    <g
       transform="scale(1.0041032,0.99591357)"
       style="font-style:normal;font-weight:normal;font-size:9.93649387px;line-height:1.25;font-family:sans-serif;letter-spacing:0px;word-spacing:0px;display:inline;fill:#000000;fill-opacity:1;stroke:none;stroke-width:0.24841234"
       id="text6650-6-4">
      <path
         d="m 97.824157,76.009303 -0.294019,1.277965 -0.104799,0 -0.01164,-0.320219 q -0.01456,-0.174665 -0.06696,-0.311486 -0.0524,-0.13682 -0.157199,-0.235797 -0.104799,-0.101888 -0.264908,-0.157199 -0.16011,-0.05822 -0.355152,-0.05822 -0.521084,0 -0.911169,0.285286 -0.497795,0.363885 -0.78017,1.027612 -0.232887,0.547283 -0.232887,1.109122 0,0.573483 0.334775,0.916991 0.334774,0.340597 0.870413,0.340597 0.404641,0 0.719038,-0.180488 0.317308,-0.180487 0.588038,-0.556016 l 0.136821,0 q -0.320219,0.509439 -0.710304,0.751059 -0.390085,0.238709 -0.934457,0.238709 -0.48324,0 -0.855858,-0.200865 -0.372619,-0.203776 -0.567661,-0.570572 -0.195043,-0.366796 -0.195043,-0.788903 0,-0.646261 0.346419,-1.257588 0.346419,-0.611327 0.949013,-0.960657 0.605505,-0.34933 1.219743,-0.34933 0.288197,0 0.64626,0.136821 0.157199,0.05822 0.227065,0.05822 0.06987,0 0.122265,-0.02911 0.0524,-0.02911 0.174665,-0.165932 l 0.10771,0 z m -0.756881,-1.109122 0.218331,0.919902 -0.06113,0 -0.491973,-0.588039 -0.928635,0.588039 -0.0786,0 0.905347,-0.919902 0.436662,0 z"
         style="font-style:italic;font-variant:normal;font-weight:normal;font-stretch:normal;font-size:5.96189642px;line-height:1.25;font-family:'Times New Roman';-inkscape-font-specification:'Times New Roman, Italic';text-align:start;writing-mode:lr-tb;text-anchor:start;stroke-width:0.24841234"
         id="path4051" />
      <path
         d="m 99.160344,77.882876 -0.227064,0.791814 0.45704,0 -0.04949,0.183398 -0.454129,0 -0.500706,1.717539 q -0.08151,0.276552 -0.08151,0.358063 0,0.04949 0.02329,0.07569 0.02329,0.0262 0.05531,0.0262 0.07278,0 0.192132,-0.101888 0.06987,-0.05822 0.311485,-0.358063 l 0.09607,0.07278 q -0.26782,0.390085 -0.506528,0.550194 -0.163021,0.110621 -0.328953,0.110621 -0.128087,0 -0.209597,-0.0786 -0.08151,-0.08151 -0.08151,-0.206687 0,-0.157198 0.09315,-0.480328 l 0.486151,-1.685517 -0.439574,0 0.02911,-0.113532 q 0.320219,-0.08733 0.532728,-0.259086 0.212509,-0.174665 0.474506,-0.602594 l 0.128088,0 z"
         style="font-style:italic;font-variant:normal;font-weight:normal;font-stretch:normal;font-size:5.96189642px;font-family:'Times New Roman';-inkscape-font-specification:'Times New Roman, Italic';text-align:start;writing-mode:lr-tb;baseline-shift:sub;text-anchor:start;stroke-width:0.24841234"
         id="path4053" />
    </g>
    <g
       transform="scale(1.0054868,0.99454312)"
       style="font-style:normal;font-weight:normal;font-size:7.93694925px;line-height:1.25;font-family:sans-serif;letter-spacing:0px;word-spacing:0px;display:inline;fill:#000000;fill-opacity:1;stroke:none;stroke-width:0.19842371"
       id="input_tanh_text">
      <path
         d="m 70.837877,70.197919 -0.302286,1.054126 0.608448,0 -0.06588,0.244154 -0.604572,0 -0.66658,2.286524 q -0.108513,0.368169 -0.108513,0.476682 0,0.06588 0.031,0.100762 0.031,0.03488 0.07363,0.03488 0.09689,0 0.25578,-0.135641 0.09301,-0.07751 0.414675,-0.476682 l 0.12789,0.09689 q -0.356543,0.519312 -0.674331,0.732463 -0.217026,0.147268 -0.437927,0.147268 -0.17052,0 -0.279033,-0.104638 -0.108513,-0.108513 -0.108513,-0.275158 0,-0.209275 0.124014,-0.639451 l 0.647203,-2.243894 -0.585195,0 0.03875,-0.151143 q 0.426301,-0.116264 0.70921,-0.344916 0.282909,-0.232528 0.631701,-0.802221 l 0.17052,0 z"
         style="font-style:italic;font-variant:normal;font-weight:normal;font-stretch:normal;font-size:7.93694925px;font-family:'Times New Roman';-inkscape-font-specification:'Times New Roman, Italic';text-align:start;writing-mode:lr-tb;text-anchor:start;stroke-width:0.19842371"
         id="path4067" />
      <path
         d="m 74.701714,71.159034 -0.755715,2.627564 -0.08526,0.352667 q -0.01163,0.05038 -0.01163,0.08526 0,0.06201 0.03875,0.108513 0.031,0.03488 0.07751,0.03488 0.05038,0 0.131766,-0.06201 0.151143,-0.112388 0.403048,-0.465055 l 0.131766,0.09301 q -0.267407,0.403048 -0.550316,0.616199 -0.282909,0.209275 -0.523187,0.209275 -0.166645,0 -0.251906,-0.08526 -0.08138,-0.08138 -0.08138,-0.240278 0,-0.189898 0.08526,-0.499935 l 0.08138,-0.29066 q -0.507686,0.662704 -0.933987,0.926236 -0.306162,0.189898 -0.600697,0.189898 -0.282909,0 -0.488308,-0.232528 -0.2054,-0.236404 -0.2054,-0.647203 0,-0.616198 0.368169,-1.29828 0.372045,-0.685957 0.941738,-1.096756 0.445678,-0.325539 0.840975,-0.325539 0.236404,0 0.391422,0.124015 0.158894,0.124015 0.240279,0.410799 l 0.139517,-0.441803 0.616198,-0.09301 z m -1.379665,0.201524 q -0.248029,0 -0.527063,0.232528 -0.395297,0.329414 -0.705334,0.976617 -0.306162,0.647202 -0.306162,1.17039 0,0.263531 0.131766,0.41855 0.131766,0.151143 0.302286,0.151143 0.422426,0 0.918485,-0.62395 0.662704,-0.829349 0.662704,-1.701328 0,-0.329415 -0.12789,-0.476682 -0.12789,-0.147268 -0.348792,-0.147268 z"
         style="font-style:italic;font-variant:normal;font-weight:normal;font-stretch:normal;font-size:7.93694925px;font-family:'Times New Roman';-inkscape-font-specification:'Times New Roman, Italic';text-align:start;writing-mode:lr-tb;text-anchor:start;stroke-width:0.19842371"
         id="path4069" />
      <path
         d="m 76.697578,71.159034 -0.515437,1.763336 q 0.724712,-1.081254 1.108383,-1.422295 0.387546,-0.341041 0.744089,-0.341041 0.193773,0 0.317788,0.12789 0.12789,0.127891 0.12789,0.33329 0,0.232528 -0.112388,0.620074 l -0.472807,1.63157 q -0.08138,0.282909 -0.08138,0.344917 0,0.05426 0.031,0.09301 0.031,0.03488 0.06588,0.03488 0.04651,0 0.112389,-0.05038 0.205399,-0.16277 0.449553,-0.496059 l 0.12014,0.07363 q -0.360418,0.515437 -0.682082,0.736338 -0.224777,0.151144 -0.403048,0.151144 -0.143392,0 -0.228652,-0.08914 -0.08526,-0.08526 -0.08526,-0.232528 0,-0.186022 0.131766,-0.639451 l 0.449554,-1.557937 q 0.08526,-0.290659 0.08526,-0.453429 0,-0.07751 -0.05038,-0.124015 -0.05038,-0.05038 -0.124015,-0.05038 -0.108513,0 -0.259656,0.09301 -0.286784,0.174396 -0.596821,0.577444 -0.310037,0.399173 -0.654954,1.023123 -0.182146,0.329414 -0.302286,0.720836 l -0.193773,0.639451 -0.581319,0 0.705334,-2.42604 q 0.124015,-0.437927 0.124015,-0.527063 0,-0.08526 -0.06976,-0.147267 -0.06588,-0.06588 -0.166645,-0.06588 -0.04651,0 -0.162769,0.0155 l -0.147268,0.02325 -0.02325,-0.139516 1.34091,-0.240279 z"
         style="font-style:italic;font-variant:normal;font-weight:normal;font-stretch:normal;font-size:7.93694925px;font-family:'Times New Roman';-inkscape-font-specification:'Times New Roman, Italic';text-align:start;writing-mode:lr-tb;text-anchor:start;stroke-width:0.19842371"
         id="path4071" />
      <path
         d="m 81.243496,69.155419 -1.089005,3.763075 q 0.705335,-1.061877 1.100632,-1.410668 0.395297,-0.348792 0.755715,-0.348792 0.186022,0 0.310037,0.12789 0.124015,0.127891 0.124015,0.341041 0,0.255781 -0.108513,0.620074 l -0.472806,1.623819 q -0.08914,0.294536 -0.08914,0.325539 0,0.05426 0.031,0.08914 0.03488,0.03488 0.07751,0.03488 0.05038,0 0.116264,-0.05038 0.220901,-0.17052 0.437927,-0.472806 l 0.12014,0.07363 q -0.131766,0.2054 -0.368169,0.45343 -0.232528,0.244154 -0.403049,0.34104 -0.166645,0.09301 -0.29841,0.09301 -0.143393,0 -0.236404,-0.09301 -0.08914,-0.08913 -0.08914,-0.232527 0,-0.170521 0.135641,-0.635576 l 0.445678,-1.550186 q 0.08526,-0.29066 0.08526,-0.457304 0,-0.07751 -0.05038,-0.124015 -0.04651,-0.04651 -0.124014,-0.04651 -0.112389,0 -0.255781,0.08526 -0.263532,0.16277 -0.608448,0.604573 -0.09301,0.120139 -0.620074,0.968865 -0.162769,0.271283 -0.267407,0.592946 l -0.24803,0.79447 -0.581319,0 1.275027,-4.43353 0.135642,-0.480557 q 0,-0.100762 -0.08526,-0.178272 -0.08138,-0.07751 -0.201524,-0.07751 -0.06976,0 -0.21315,0.02325 l -0.08138,0.01163 0,-0.151143 1.34091,-0.224777 z"
         style="font-style:italic;font-variant:normal;font-weight:normal;font-stretch:normal;font-size:7.93694925px;font-family:'Times New Roman';-inkscape-font-specification:'Times New Roman, Italic';text-align:start;writing-mode:lr-tb;text-anchor:start;stroke-width:0.19842371"
         id="path4073" />
    </g>
    <ellipse
       style="display:inline;fill:#000000;fill-opacity:1;stroke:#000000;stroke-width:0.06271248;stroke-miterlimit:4;stroke-dasharray:none;stroke-dashoffset:0;stroke-opacity:1"
       id="output_mult_text"
       cx="174.72226"
       cy="62.998741"
       rx="0.81704718"
       ry="0.79033613"
       inkscape:label="#path4842-08-4-9" />
    <ellipse
       style="display:inline;fill:#000000;fill-opacity:1;stroke:#000000;stroke-width:0.06271248;stroke-miterlimit:4;stroke-dasharray:none;stroke-dashoffset:0;stroke-opacity:1"
       id="input_mult_text"
       cx="101.86979"
       cy="54.439541"
       rx="0.81704718"
       ry="0.79033613"
       inkscape:label="#path4842-08-4-9-8" />
    <ellipse
       style="display:inline;fill:#000000;fill-opacity:1;stroke:#000000;stroke-width:0.06271248;stroke-miterlimit:4;stroke-dasharray:none;stroke-dashoffset:0;stroke-opacity:1"
       id="update_mult_text"
       cx="102.19338"
       cy="31.513323"
       rx="0.81704718"
       ry="0.79033613"
       inkscape:label="#path4842-08-4-9-7" />
  </g>
  <style
     id="style3986">




        @keyframes fade{
            from {fill-opacity : 0.75;}
            to   {fill-opacity : 0.00;}
        }
  </style>
  <!--
  <script
     href="svg_interactions.js"
     id="script241" /> -->
</svg>
