<?xml version="1.0" encoding="UTF-8" standalone="no"?>
<!-- Created with Inkscape (http://www.inkscape.org/) -->

<svg
   xmlns:dc="http://purl.org/dc/elements/1.1/"
   xmlns:cc="http://creativecommons.org/ns#"
   xmlns:rdf="http://www.w3.org/1999/02/22-rdf-syntax-ns#"
   xmlns:svg="http://www.w3.org/2000/svg"
   xmlns="http://www.w3.org/2000/svg"
   xmlns:sodipodi="http://sodipodi.sourceforge.net/DTD/sodipodi-0.dtd"
   xmlns:inkscape="http://www.inkscape.org/namespaces/inkscape"
   width="103.93556mm"
   height="27.046965mm"
   viewBox="0 0 368.27561 95.835701"
   id="svg10697"
   version="1.1"
   inkscape:version="0.91 r13725"
   sodipodi:docname="overview.svg">
  <defs
     id="defs10699">
    <marker
       inkscape:stockid="TriangleOutL"
       orient="auto"
       refY="0"
       refX="0"
       id="marker13125"
       style="overflow:visible"
       inkscape:isstock="true">
      <path
         id="path13127"
         d="m 5.77,0 -8.65,5 0,-10 8.65,5 z"
         style="fill:#000000;fill-opacity:1;fill-rule:evenodd;stroke:#000000;stroke-width:1pt;stroke-opacity:1"
         transform="scale(0.8,0.8)"
         inkscape:connector-curvature="0" />
    </marker>
    <marker
       inkscape:stockid="TriangleOutL"
       orient="auto"
       refY="0"
       refX="0"
       id="marker12525"
       style="overflow:visible"
       inkscape:isstock="true">
      <path
         id="path12527"
         d="m 5.77,0 -8.65,5 0,-10 8.65,5 z"
         style="fill:#000000;fill-opacity:1;fill-rule:evenodd;stroke:#000000;stroke-width:1pt;stroke-opacity:1"
         transform="scale(0.8,0.8)"
         inkscape:connector-curvature="0" />
    </marker>
    <marker
       inkscape:isstock="true"
       style="overflow:visible"
       id="marker12297"
       refX="0"
       refY="0"
       orient="auto"
       inkscape:stockid="TriangleOutL"
       inkscape:collect="always">
      <path
         transform="scale(0.8,0.8)"
         style="fill:#000000;fill-opacity:1;fill-rule:evenodd;stroke:#000000;stroke-width:1pt;stroke-opacity:1"
         d="m 5.77,0 -8.65,5 0,-10 8.65,5 z"
         id="path12299"
         inkscape:connector-curvature="0" />
    </marker>
    <marker
       inkscape:stockid="TriangleOutL"
       orient="auto"
       refY="0"
       refX="0"
       id="TriangleOutL"
       style="overflow:visible"
       inkscape:isstock="true"
       inkscape:collect="always">
      <path
         id="path4428"
         d="m 5.77,0 -8.65,5 0,-10 8.65,5 z"
         style="fill:#000000;fill-opacity:1;fill-rule:evenodd;stroke:#000000;stroke-width:1pt;stroke-opacity:1"
         transform="scale(0.8,0.8)"
         inkscape:connector-curvature="0" />
    </marker>
  </defs>
  <sodipodi:namedview
     id="base"
     pagecolor="#ffffff"
     bordercolor="#666666"
     borderopacity="1.0"
     inkscape:pageopacity="0.0"
     inkscape:pageshadow="2"
     inkscape:zoom="1.4"
     inkscape:cx="204.95234"
     inkscape:cy="26.444201"
     inkscape:document-units="px"
     inkscape:current-layer="layer4"
     showgrid="false"
     fit-margin-top="0"
     fit-margin-left="0"
     fit-margin-right="0"
     fit-margin-bottom="0"
     inkscape:window-width="2211"
     inkscape:window-height="1037"
     inkscape:window-x="0"
     inkscape:window-y="1"
     inkscape:window-maximized="0" />
  <metadata
     id="metadata10702">
    <rdf:RDF>
      <cc:Work
         rdf:about="">
        <dc:format>image/svg+xml</dc:format>
        <dc:type
           rdf:resource="http://purl.org/dc/dcmitype/StillImage" />
        <dc:title></dc:title>
      </cc:Work>
    </rdf:RDF>
  </metadata>
  <g
     inkscape:groupmode="layer"
     id="layer4"
     inkscape:label="boxes"
     transform="translate(-67.461548,-304.16936)">
    <rect
       style="opacity:1;fill:#0000ff;fill-opacity:0;stroke:#000000;stroke-width:2.0999999;stroke-miterlimit:4;stroke-dasharray:none;stroke-opacity:1"
       id="rect11315"
       width="147.14285"
       height="78.571426"
       x="167.14285"
       y="305.21936" />
    <path
       style="fill:none;fill-rule:evenodd;stroke:#000000;stroke-width:1px;stroke-linecap:butt;stroke-linejoin:miter;stroke-opacity:1;marker-end:url(#TriangleOutL)"
       d="m 315.71429,366.64792 12.85714,0 0,32.85714 -175.71429,0 0,-32.14285 8.57143,0"
       id="path11317"
       inkscape:connector-curvature="0"
       sodipodi:nodetypes="cccccc" />
    <g
       style="font-style:normal;font-weight:normal;font-size:40px;line-height:125%;font-family:sans-serif;letter-spacing:0px;word-spacing:0px;fill:#000000;fill-opacity:1;stroke:none;stroke-width:1px;stroke-linecap:butt;stroke-linejoin:miter;stroke-opacity:1"
       id="text12281">
      <path
         d="m 71.779175,308.45892 q 0,-0.42846 0.307617,-0.72509 0.307617,-0.30762 0.736084,-0.30762 0.428467,0 0.736084,0.30762 0.318603,0.29663 0.318603,0.72509 0,0.43946 -0.307617,0.73609 -0.296631,0.29663 -0.74707,0.29663 -0.439453,0 -0.74707,-0.29663 -0.296631,-0.29663 -0.296631,-0.73609 z m 0.340576,13.54615 0,-9.74488 1.395264,0 0,9.74488 -1.395264,0 z"
         style="font-style:normal;font-variant:normal;font-weight:normal;font-stretch:normal;font-size:22.5px;font-family:'Futura Lt BT';-inkscape-font-specification:'Futura Lt BT';text-align:center;text-anchor:middle"
         id="path13917" />
      <path
         d="m 77.217407,322.00507 0,-9.74488 1.285401,0 0,1.50513 q 0.593261,-0.93384 1.450195,-1.39526 0.86792,-0.47242 1.988525,-0.47242 1.658936,0 2.581787,0.92286 0.922852,0.92285 0.922852,2.5708 l 0,6.61377 -1.373291,0 0,-6.00953 q 0,-1.46118 -0.615234,-2.1643 -0.604248,-0.71411 -1.878663,-0.71411 -1.549072,0 -2.285156,0.92285 -0.725097,0.91186 -0.725097,2.87842 l 0,5.08667 -1.351319,0 z"
         style="font-style:normal;font-variant:normal;font-weight:normal;font-stretch:normal;font-size:22.5px;font-family:'Futura Lt BT';-inkscape-font-specification:'Futura Lt BT';text-align:center;text-anchor:middle"
         id="path13919" />
      <path
         d="m 96.849976,317.19305 q 0,-1.88964 -0.86792,-2.9663 -0.856934,-1.08765 -2.373047,-1.08765 -1.560059,0 -2.449951,1.05469 -0.878907,1.0437 -0.878907,2.87841 0,1.86768 0.944825,2.98829 0.95581,1.10961 2.515869,1.10961 1.472168,0 2.285156,-1.0437 0.823975,-1.05468 0.823975,-2.93335 z m -7.89917,9.71192 0,-14.64478 1.307373,0 0,1.82373 q 0.560302,-1.05468 1.461181,-1.61499 0.900879,-0.57129 2.021485,-0.57129 2.054443,0 3.306884,1.4502 1.263428,1.43921 1.263428,3.82324 0,2.39502 -1.230469,3.83423 -1.230468,1.42822 -3.273925,1.42822 -1.175537,0 -2.076416,-0.5603 -0.900879,-0.57129 -1.472168,-1.66992 l 0,6.70166 -1.307373,0 z"
         style="font-style:normal;font-variant:normal;font-weight:normal;font-stretch:normal;font-size:22.5px;font-family:'Futura Lt BT';-inkscape-font-specification:'Futura Lt BT';text-align:center;text-anchor:middle"
         id="path13921" />
      <path
         d="m 102.47498,312.26019 0,4.86695 q 0,2.21923 0.62622,3.1311 0.6372,0.91186 2.14233,0.91186 1.49414,0 2.14233,-0.92285 0.6482,-0.92285 0.6482,-3.12011 l 0,-4.86695 1.34033,0 0,5.55908 q 0,2.27417 -1.0437,3.44971 -1.0437,1.16455 -3.06519,1.16455 -2.03247,0 -3.08716,-1.16455 -1.05468,-1.17554 -1.05468,-3.44971 l 0,-5.55908 1.35132,0 z"
         style="font-style:normal;font-variant:normal;font-weight:normal;font-stretch:normal;font-size:22.5px;font-family:'Futura Lt BT';-inkscape-font-specification:'Futura Lt BT';text-align:center;text-anchor:middle"
         id="path13923" />
      <path
         d="m 113.27454,313.41376 -1.79078,0 0,-1.15357 1.79078,0 0,-3.99902 1.32934,0 0,3.99902 1.95557,0 0,1.15357 -1.95557,0 0,8.59131 -1.32934,0 0,-8.59131 z"
         style="font-style:normal;font-variant:normal;font-weight:normal;font-stretch:normal;font-size:22.5px;font-family:'Futura Lt BT';-inkscape-font-specification:'Futura Lt BT';text-align:center;text-anchor:middle"
         id="path13925" />
      <path
         d="m 68.966675,345.362 q 0,1.88965 0.845947,2.91138 0.856934,1.02172 2.438965,1.02172 1.538086,0 2.416992,-1.10961 0.889893,-1.12061 0.889893,-3.07618 0,-1.79077 -0.878907,-2.8125 -0.878906,-1.03271 -2.406005,-1.03271 -1.5271,0 -2.416993,1.09863 -0.889892,1.08765 -0.889892,2.99927 z m 6.569824,4.76807 0,-1.77979 q -0.483398,1.07666 -1.362305,1.64795 -0.86792,0.5603 -2.054443,0.5603 -2.098389,0 -3.383789,-1.43921 -1.274414,-1.43921 -1.274414,-3.80127 0,-2.34008 1.263428,-3.81225 1.263427,-1.48316 3.262939,-1.48316 1.241455,0 2.142334,0.54932 0.911865,0.53833 1.40625,1.59302 l 0,-1.77979 1.351318,0 0,9.74488 -1.351318,0 z"
         style="font-style:normal;font-variant:normal;font-weight:normal;font-stretch:normal;font-size:22.5px;font-family:'Futura Lt BT';-inkscape-font-specification:'Futura Lt BT';text-align:center;text-anchor:middle"
         id="path13927" />
      <path
         d="m 81.864624,340.38519 0,4.86695 q 0,2.21923 0.626221,3.1311 0.637207,0.91186 2.142334,0.91186 1.49414,0 2.142334,-0.92285 0.648193,-0.92285 0.648193,-3.12011 l 0,-4.86695 1.340332,0 0,5.55908 q 0,2.27417 -1.043701,3.44971 -1.043701,1.16455 -3.065186,1.16455 -2.03247,0 -3.087158,-1.16455 -1.054687,-1.17554 -1.054687,-3.44971 l 0,-5.55908 1.351318,0 z"
         style="font-style:normal;font-variant:normal;font-weight:normal;font-stretch:normal;font-size:22.5px;font-family:'Futura Lt BT';-inkscape-font-specification:'Futura Lt BT';text-align:center;text-anchor:middle"
         id="path13929" />
      <path
         d="m 93.048706,345.362 q 0,1.88965 0.845947,2.91138 0.856934,1.02172 2.438965,1.02172 1.5271,0 2.406006,-1.10961 0.878906,-1.12061 0.878906,-3.07618 0,-1.79077 -0.86792,-2.8125 -0.86792,-1.03271 -2.395019,-1.03271 -1.5271,0 -2.416992,1.09863 -0.889893,1.08765 -0.889893,2.99927 z m 6.547852,4.76807 0,-1.77979 q -0.483399,1.08765 -1.351319,1.64795 -0.86792,0.5603 -2.043457,0.5603 -2.098388,0 -3.383789,-1.43921 -1.274414,-1.43921 -1.274414,-3.80127 0,-2.34008 1.263428,-3.81225 1.263428,-1.48316 3.262939,-1.48316 1.241455,0 2.131348,0.54932 0.900879,0.53833 1.395264,1.59302 l 0,-9.06372 1.373292,0 0,17.02881 -1.373292,0 z"
         style="font-style:normal;font-variant:normal;font-weight:normal;font-stretch:normal;font-size:22.5px;font-family:'Futura Lt BT';-inkscape-font-specification:'Futura Lt BT';text-align:center;text-anchor:middle"
         id="path13931" />
      <path
         d="m 104.29871,336.58392 q 0,-0.42846 0.30761,-0.72509 0.30762,-0.30762 0.73609,-0.30762 0.42846,0 0.73608,0.30762 0.3186,0.29663 0.3186,0.72509 0,0.43946 -0.30761,0.73609 -0.29663,0.29663 -0.74707,0.29663 -0.43946,0 -0.74707,-0.29663 -0.29663,-0.29663 -0.29663,-0.73609 z m 0.34057,13.54615 0,-9.74488 1.39527,0 0,9.74488 -1.39527,0 z"
         style="font-style:normal;font-variant:normal;font-weight:normal;font-stretch:normal;font-size:22.5px;font-family:'Futura Lt BT';-inkscape-font-specification:'Futura Lt BT';text-align:center;text-anchor:middle"
         id="path13933" />
      <path
         d="m 114.20837,349.2951 q 1.60401,0 2.71363,-1.15356 1.1206,-1.16455 1.1206,-2.84546 0,-1.70288 -1.10962,-2.85644 -1.10962,-1.15357 -2.72461,-1.15357 -1.604,0 -2.71362,1.15357 -1.10962,1.15356 -1.10962,2.85644 0,1.68091 1.10962,2.84546 1.10962,1.15356 2.71362,1.15356 z m -0.0439,1.26343 q -1.0437,0 -1.99951,-0.41748 -0.95581,-0.40649 -1.73584,-1.17553 -0.73609,-0.7251 -1.12061,-1.66993 -0.38452,-0.94482 -0.38452,-2.02148 0,-1.06567 0.39551,-2.02149 0.39551,-0.95581 1.13159,-1.69189 0.74707,-0.74707 1.70288,-1.14258 0.95581,-0.39551 2.0105,-0.39551 1.07666,0 2.04346,0.39551 0.97778,0.39551 1.73584,1.14258 0.75805,0.74707 1.15356,1.70288 0.40649,0.95581 0.40649,2.0105 0,1.05469 -0.3955,2.0105 -0.39551,0.94482 -1.14258,1.68091 -0.76904,0.76904 -1.75781,1.17553 -0.97779,0.41748 -2.04346,0.41748 z"
         style="font-style:normal;font-variant:normal;font-weight:normal;font-stretch:normal;font-size:22.5px;font-family:'Futura Lt BT';-inkscape-font-specification:'Futura Lt BT';text-align:center;text-anchor:middle"
         id="path13935" />
    </g>
    <g
       style="font-style:normal;font-weight:normal;font-size:40px;line-height:125%;font-family:sans-serif;letter-spacing:0px;word-spacing:0px;fill:#000000;fill-opacity:1;stroke:none;stroke-width:1px;stroke-linecap:butt;stroke-linejoin:miter;stroke-opacity:1"
       id="text13375">
      <path
         d="m 358.93173,320.26923 1.2854,-0.73609 q 0.31861,0.81299 0.92285,1.23047 0.60425,0.40649 1.48316,0.40649 0.85693,0 1.3623,-0.42846 0.50537,-0.43945 0.50537,-1.16455 0,-1.12061 -1.98852,-1.90064 -0.20874,-0.0769 -0.32959,-0.13183 -1.53809,-0.60425 -2.15332,-1.24146 -0.61524,-0.64819 -0.61524,-1.59302 0,-1.24145 0.87891,-2.03247 0.87891,-0.802 2.27417,-0.802 1.18652,0 2.02148,0.51636 0.83497,0.51636 1.21949,1.47217 l -1.24146,0.69214 q -0.23071,-0.69214 -0.76904,-1.05469 -0.53833,-0.36255 -1.31836,-0.36255 -0.70313,0 -1.16455,0.41748 -0.45044,0.40649 -0.45044,1.02173 0,0.60425 0.45044,0.99975 0.45044,0.39551 1.86767,0.86792 1.60401,0.56031 2.15333,1.21949 0.5603,0.65918 0.5603,1.82373 0,1.34033 -0.95581,2.14233 -0.95581,0.802 -2.5708,0.802 -1.24146,0 -2.14234,-0.5603 -0.88989,-0.57129 -1.2854,-1.604 z"
         style="font-style:normal;font-variant:normal;font-weight:normal;font-stretch:normal;font-size:22.5px;font-family:'Futura Lt BT';-inkscape-font-specification:'Futura Lt BT';text-align:center;text-anchor:middle"
         id="path13855" />
      <path
         d="m 369.28085,317.237 q 0,1.88965 0.84595,2.91138 0.85693,1.02172 2.43897,1.02172 1.53808,0 2.41699,-1.10961 0.88989,-1.12061 0.88989,-3.07618 0,-1.79077 -0.87891,-2.8125 -0.8789,-1.03271 -2.406,-1.03271 -1.5271,0 -2.41699,1.09863 -0.8899,1.08765 -0.8899,2.99927 z m 6.56983,4.76807 0,-1.77979 q -0.4834,1.07666 -1.36231,1.64795 -0.86792,0.5603 -2.05444,0.5603 -2.09839,0 -3.38379,-1.43921 -1.27441,-1.43921 -1.27441,-3.80127 0,-2.34008 1.26342,-3.81225 1.26343,-1.48316 3.26294,-1.48316 1.24146,0 2.14234,0.54932 0.91186,0.53833 1.40625,1.59302 l 0,-1.77979 1.35132,0 0,9.74488 -1.35132,0 z"
         style="font-style:normal;font-variant:normal;font-weight:normal;font-stretch:normal;font-size:22.5px;font-family:'Futura Lt BT';-inkscape-font-specification:'Futura Lt BT';text-align:center;text-anchor:middle"
         id="path13857" />
      <path
         d="m 382.1788,322.00507 -1.35132,0 0,-9.74488 1.35132,0 0,1.5271 q 0.4834,-0.92285 1.27442,-1.40625 0.79101,-0.4834 1.82373,-0.4834 1.06567,0 1.81274,0.49439 0.75806,0.4834 1.16455,1.42822 0.58228,-0.9668 1.42822,-1.43921 0.84595,-0.4834 1.96656,-0.4834 1.54907,0 2.43896,0.94483 0.88989,0.93384 0.88989,2.5708 l 0,6.5918 -1.35131,0 0,-6.05347 q 0,-1.42822 -0.59327,-2.15332 -0.58227,-0.7251 -1.74682,-0.7251 -1.39527,0 -2.05444,0.91187 -0.6482,0.91186 -0.6482,2.8894 l 0,5.13062 -1.34033,0 0,-6.05347 q 0,-1.49414 -0.5603,-2.18628 -0.56031,-0.69214 -1.73584,-0.69214 -1.42823,0 -2.09839,0.92285 -0.67017,0.92285 -0.67017,2.87842 l 0,5.13062 z"
         style="font-style:normal;font-variant:normal;font-weight:normal;font-stretch:normal;font-size:22.5px;font-family:'Futura Lt BT';-inkscape-font-specification:'Futura Lt BT';text-align:center;text-anchor:middle"
         id="path13859" />
      <path
         d="m 406.48056,317.19305 q 0,-1.88964 -0.86792,-2.9663 -0.85693,-1.08765 -2.37305,-1.08765 -1.56006,0 -2.44995,1.05469 -0.8789,1.0437 -0.8789,2.87841 0,1.86768 0.94482,2.98829 0.95581,1.10961 2.51587,1.10961 1.47217,0 2.28516,-1.0437 0.82397,-1.05468 0.82397,-2.93335 z m -7.89917,9.71192 0,-14.64478 1.30737,0 0,1.82373 q 0.56031,-1.05468 1.46119,-1.61499 0.90087,-0.57129 2.02148,-0.57129 2.05444,0 3.30688,1.4502 1.26343,1.43921 1.26343,3.82324 0,2.39502 -1.23047,3.83423 -1.23047,1.42822 -3.27392,1.42822 -1.17554,0 -2.07642,-0.5603 -0.90088,-0.57129 -1.47217,-1.66992 l 0,6.70166 -1.30737,0 z"
         style="font-style:normal;font-variant:normal;font-weight:normal;font-stretch:normal;font-size:22.5px;font-family:'Futura Lt BT';-inkscape-font-specification:'Futura Lt BT';text-align:center;text-anchor:middle"
         id="path13861" />
      <path
         d="m 412.2374,322.00507 -1.39527,0 0,-17.02881 1.39527,0 0,17.02881 z"
         style="font-style:normal;font-variant:normal;font-weight:normal;font-stretch:normal;font-size:22.5px;font-family:'Futura Lt BT';-inkscape-font-specification:'Futura Lt BT';text-align:center;text-anchor:middle"
         id="path13863" />
      <path
         d="m 422.70737,316.01752 q -0.0989,-1.34033 -0.8899,-2.07642 -0.79101,-0.73608 -2.14233,-0.73608 -1.23047,0 -2.06543,0.76904 -0.82397,0.76904 -0.95581,2.04346 l 6.05347,0 z m 1.604,1.15356 -7.74536,0 q 0.0549,1.88965 0.94482,2.96631 0.8899,1.07666 2.38404,1.07666 1.07666,0 1.88965,-0.58228 0.81298,-0.58227 1.35131,-1.75781 l 1.24146,0.68115 q -0.74707,1.48316 -1.83472,2.18628 -1.07666,0.69214 -2.6477,0.69214 -2.14234,0 -3.47168,-1.42822 -1.31836,-1.43921 -1.31836,-3.76831 0,-2.39502 1.30737,-3.86719 1.31836,-1.47217 3.43872,-1.47217 2.02149,0 3.24097,1.36231 1.21948,1.35132 1.21948,3.6145 l 0,0.29663 z"
         style="font-style:normal;font-variant:normal;font-weight:normal;font-stretch:normal;font-size:22.5px;font-family:'Futura Lt BT';-inkscape-font-specification:'Futura Lt BT';text-align:center;text-anchor:middle"
         id="path13865" />
      <path
         d="m 427.81601,317.237 q 0,1.88965 0.84595,2.91138 0.85693,1.02172 2.43896,1.02172 1.5271,0 2.40601,-1.10961 0.8789,-1.12061 0.8789,-3.07618 0,-1.79077 -0.86792,-2.8125 -0.86792,-1.03271 -2.39502,-1.03271 -1.5271,0 -2.41699,1.09863 -0.88989,1.08765 -0.88989,2.99927 z m 6.54785,4.76807 0,-1.77979 q -0.4834,1.08765 -1.35132,1.64795 -0.86792,0.5603 -2.04345,0.5603 -2.09839,0 -3.38379,-1.43921 -1.27442,-1.43921 -1.27442,-3.80127 0,-2.34008 1.26343,-3.81225 1.26343,-1.48316 3.26294,-1.48316 1.24145,0 2.13135,0.54932 0.90088,0.53833 1.39526,1.59302 l 0,-9.06372 1.37329,0 0,17.02881 -1.37329,0 z"
         style="font-style:normal;font-variant:normal;font-weight:normal;font-stretch:normal;font-size:22.5px;font-family:'Futura Lt BT';-inkscape-font-specification:'Futura Lt BT';text-align:center;text-anchor:middle"
         id="path13867" />
      <path
         d="m 374.29062,349.2951 q 1.604,0 2.71362,-1.15356 1.12061,-1.16455 1.12061,-2.84546 0,-1.70288 -1.10962,-2.85644 -1.10962,-1.15357 -2.72461,-1.15357 -1.60401,0 -2.71362,1.15357 -1.10962,1.15356 -1.10962,2.85644 0,1.68091 1.10962,2.84546 1.10961,1.15356 2.71362,1.15356 z m -0.0439,1.26343 q -1.0437,0 -1.99951,-0.41748 -0.95581,-0.40649 -1.73584,-1.17553 -0.73608,-0.7251 -1.1206,-1.66993 -0.38452,-0.94482 -0.38452,-2.02148 0,-1.06567 0.3955,-2.02149 0.39551,-0.95581 1.13159,-1.69189 0.74707,-0.74707 1.70289,-1.14258 0.95581,-0.39551 2.01049,-0.39551 1.07666,0 2.04346,0.39551 0.97778,0.39551 1.73584,1.14258 0.75806,0.74707 1.15356,1.70288 0.4065,0.95581 0.4065,2.0105 0,1.05469 -0.39551,2.0105 -0.39551,0.94482 -1.14258,1.68091 -0.76904,0.76904 -1.75781,1.17553 -0.97778,0.41748 -2.04346,0.41748 z"
         style="font-style:normal;font-variant:normal;font-weight:normal;font-stretch:normal;font-size:22.5px;font-family:'Futura Lt BT';-inkscape-font-specification:'Futura Lt BT';text-align:center;text-anchor:middle"
         id="path13869" />
      <path
         d="m 383.73886,340.38519 0,4.86695 q 0,2.21923 0.62622,3.1311 0.63721,0.91186 2.14234,0.91186 1.49414,0 2.14233,-0.92285 0.64819,-0.92285 0.64819,-3.12011 l 0,-4.86695 1.34034,0 0,5.55908 q 0,2.27417 -1.04371,3.44971 -1.0437,1.16455 -3.06518,1.16455 -2.03247,0 -3.08716,-1.16455 -1.05469,-1.17554 -1.05469,-3.44971 l 0,-5.55908 1.35132,0 z"
         style="font-style:normal;font-variant:normal;font-weight:normal;font-stretch:normal;font-size:22.5px;font-family:'Futura Lt BT';-inkscape-font-specification:'Futura Lt BT';text-align:center;text-anchor:middle"
         id="path13871" />
      <path
         d="m 394.53842,341.53876 -1.79077,0 0,-1.15357 1.79077,0 0,-3.99902 1.32935,0 0,3.99902 1.95556,0 0,1.15357 -1.95556,0 0,8.59131 -1.32935,0 0,-8.59131 z"
         style="font-style:normal;font-variant:normal;font-weight:normal;font-stretch:normal;font-size:22.5px;font-family:'Futura Lt BT';-inkscape-font-specification:'Futura Lt BT';text-align:center;text-anchor:middle"
         id="path13873" />
      <path
         d="m 407.77695,345.31805 q 0,-1.88964 -0.86792,-2.9663 -0.85694,-1.08765 -2.37305,-1.08765 -1.56006,0 -2.44995,1.05469 -0.87891,1.0437 -0.87891,2.87841 0,1.86768 0.94483,2.98829 0.95581,1.10961 2.51587,1.10961 1.47216,0 2.28515,-1.0437 0.82398,-1.05468 0.82398,-2.93335 z m -7.89917,9.71192 0,-14.64478 1.30737,0 0,1.82373 q 0.5603,-1.05468 1.46118,-1.61499 0.90088,-0.57129 2.02149,-0.57129 2.05444,0 3.30688,1.4502 1.26343,1.43921 1.26343,3.82324 0,2.39502 -1.23047,3.83423 -1.23047,1.42822 -3.27393,1.42822 -1.17553,0 -2.07641,-0.5603 -0.90088,-0.57129 -1.47217,-1.66992 l 0,6.70166 -1.30737,0 z"
         style="font-style:normal;font-variant:normal;font-weight:normal;font-stretch:normal;font-size:22.5px;font-family:'Futura Lt BT';-inkscape-font-specification:'Futura Lt BT';text-align:center;text-anchor:middle"
         id="path13875" />
      <path
         d="m 413.40195,340.38519 0,4.86695 q 0,2.21923 0.62622,3.1311 0.6372,0.91186 2.14233,0.91186 1.49414,0 2.14234,-0.92285 0.64819,-0.92285 0.64819,-3.12011 l 0,-4.86695 1.34033,0 0,5.55908 q 0,2.27417 -1.0437,3.44971 -1.0437,1.16455 -3.06519,1.16455 -2.03247,0 -3.08715,-1.16455 -1.05469,-1.17554 -1.05469,-3.44971 l 0,-5.55908 1.35132,0 z"
         style="font-style:normal;font-variant:normal;font-weight:normal;font-stretch:normal;font-size:22.5px;font-family:'Futura Lt BT';-inkscape-font-specification:'Futura Lt BT';text-align:center;text-anchor:middle"
         id="path13877" />
      <path
         d="m 424.20151,341.53876 -1.79077,0 0,-1.15357 1.79077,0 0,-3.99902 1.32934,0 0,3.99902 1.95557,0 0,1.15357 -1.95557,0 0,8.59131 -1.32934,0 0,-8.59131 z"
         style="font-style:normal;font-variant:normal;font-weight:normal;font-stretch:normal;font-size:22.5px;font-family:'Futura Lt BT';-inkscape-font-specification:'Futura Lt BT';text-align:center;text-anchor:middle"
         id="path13879" />
    </g>
  </g>
  <g
     inkscape:label="text"
     inkscape:groupmode="layer"
     id="layer1"
     transform="translate(-67.461548,-304.16936)">
    <g
       style="font-style:normal;font-weight:normal;font-size:40px;line-height:125%;font-family:sans-serif;letter-spacing:0px;word-spacing:0px;fill:#000000;fill-opacity:1;stroke:none;stroke-width:1px;stroke-linecap:butt;stroke-linejoin:miter;stroke-opacity:1"
       id="text11310">
      <path
         d="m 184.77782,331.83347 1.71386,-0.98145 q 0.42481,1.08398 1.23047,1.64063 0.80567,0.54199 1.97754,0.54199 1.14258,0 1.81641,-0.57129 0.67383,-0.58594 0.67383,-1.55274 0,-1.49414 -2.65137,-2.53418 -0.27832,-0.10253 -0.43945,-0.17578 -2.05079,-0.80566 -2.8711,-1.65527 -0.82031,-0.86426 -0.82031,-2.12402 0,-1.65528 1.17187,-2.70996 1.17188,-1.06934 3.03223,-1.06934 1.58203,0 2.69531,0.68848 1.11328,0.68847 1.62598,1.96289 l -1.65527,0.92285 q -0.30762,-0.92285 -1.02539,-1.40625 -0.71778,-0.4834 -1.75782,-0.4834 -0.9375,0 -1.55273,0.55664 -0.60059,0.54199 -0.60059,1.3623 0,0.80567 0.60059,1.33301 0.60059,0.52735 2.49023,1.15723 2.13868,0.74707 2.8711,1.62598 0.74707,0.8789 0.74707,2.43164 0,1.78711 -1.27442,2.85644 -1.27441,1.06934 -3.42773,1.06934 -1.65527,0 -2.85645,-0.74707 -1.18652,-0.76172 -1.71386,-2.13867 z"
         style="font-style:normal;font-variant:normal;font-weight:normal;font-stretch:normal;font-size:30px;font-family:'Futura Lt BT';-inkscape-font-specification:'Futura Lt BT';text-align:center;text-anchor:middle"
         id="path13882" />
      <path
         d="m 198.57664,327.7905 q 0,2.51953 1.12793,3.88183 1.14258,1.36231 3.25196,1.36231 2.05078,0 3.22265,-1.47949 1.18653,-1.49415 1.18653,-4.10157 0,-2.38769 -1.17188,-3.75 -1.17187,-1.37695 -3.20801,-1.37695 -2.03613,0 -3.22265,1.46484 -1.18653,1.4502 -1.18653,3.99903 z m 8.75977,6.35742 0,-2.37305 q -0.64453,1.43555 -1.81641,2.19727 -1.15722,0.74707 -2.73925,0.74707 -2.79786,0 -4.51172,-1.91895 -1.69922,-1.91894 -1.69922,-5.06836 0,-3.12011 1.68457,-5.083 1.68457,-1.97754 4.35059,-1.97754 1.65527,0 2.85644,0.73242 1.21582,0.71777 1.875,2.12402 l 0,-2.37305 1.80176,0 0,12.99317 -1.80176,0 z"
         style="font-style:normal;font-variant:normal;font-weight:normal;font-stretch:normal;font-size:30px;font-family:'Futura Lt BT';-inkscape-font-specification:'Futura Lt BT';text-align:center;text-anchor:middle"
         id="path13884" />
      <path
         d="m 215.77391,334.14792 -1.80176,0 0,-12.99317 1.80176,0 0,2.03614 q 0.64453,-1.23047 1.69922,-1.875 1.05469,-0.64453 2.43164,-0.64453 1.4209,0 2.41699,0.65918 1.01074,0.64453 1.55274,1.90429 0.77636,-1.28906 1.90429,-1.91894 1.12793,-0.64453 2.62207,-0.64453 2.06543,0 3.25196,1.25976 1.18652,1.24512 1.18652,3.42774 l 0,8.78906 -1.80176,0 0,-8.07129 q 0,-1.9043 -0.79101,-2.87109 -0.77637,-0.9668 -2.3291,-0.9668 -1.86036,0 -2.73926,1.21582 -0.86426,1.21582 -0.86426,3.85254 l 0,6.84082 -1.78711,0 0,-8.07129 q 0,-1.99219 -0.74707,-2.91504 -0.74707,-0.92285 -2.31445,-0.92285 -1.9043,0 -2.79785,1.23047 -0.89356,1.23047 -0.89356,3.83789 l 0,6.84082 z"
         style="font-style:normal;font-variant:normal;font-weight:normal;font-stretch:normal;font-size:30px;font-family:'Futura Lt BT';-inkscape-font-specification:'Futura Lt BT';text-align:center;text-anchor:middle"
         id="path13886" />
      <path
         d="m 248.17625,327.7319 q 0,-2.51953 -1.15722,-3.95508 -1.14258,-1.45019 -3.16406,-1.45019 -2.08008,0 -3.26661,1.40625 -1.17187,1.3916 -1.17187,3.83789 0,2.49023 1.25976,3.98438 1.27442,1.47949 3.3545,1.47949 1.96289,0 3.04687,-1.3916 1.09863,-1.40625 1.09863,-3.91114 z m -10.53222,12.94922 0,-19.52637 1.74316,0 0,2.43165 q 0.74707,-1.40625 1.94824,-2.15333 1.20118,-0.76171 2.69532,-0.76171 2.73925,0 4.40918,1.93359 1.68457,1.91895 1.68457,5.09766 0,3.19336 -1.64063,5.1123 -1.64062,1.9043 -4.36523,1.9043 -1.56739,0 -2.76856,-0.74707 -1.20117,-0.76172 -1.96289,-2.22657 l 0,8.93555 -1.74316,0 z"
         style="font-style:normal;font-variant:normal;font-weight:normal;font-stretch:normal;font-size:30px;font-family:'Futura Lt BT';-inkscape-font-specification:'Futura Lt BT';text-align:center;text-anchor:middle"
         id="path13888" />
      <path
         d="m 255.85204,334.14792 -1.86036,0 0,-22.70508 1.86036,0 0,22.70508 z"
         style="font-style:normal;font-variant:normal;font-weight:normal;font-stretch:normal;font-size:30px;font-family:'Futura Lt BT';-inkscape-font-specification:'Futura Lt BT';text-align:center;text-anchor:middle"
         id="path13890" />
      <path
         d="m 260.45164,316.0864 q 0,-0.57129 0.41016,-0.9668 0.41016,-0.41016 0.98145,-0.41016 0.57129,0 0.98144,0.41016 0.42481,0.39551 0.42481,0.9668 0,0.58593 -0.41016,0.98144 -0.39551,0.39551 -0.99609,0.39551 -0.58594,0 -0.9961,-0.39551 -0.39551,-0.39551 -0.39551,-0.98144 z m 0.45411,18.06152 0,-12.99317 1.86035,0 0,12.99317 -1.86035,0 z"
         style="font-style:normal;font-variant:normal;font-weight:normal;font-stretch:normal;font-size:30px;font-family:'Futura Lt BT';-inkscape-font-specification:'Futura Lt BT';text-align:center;text-anchor:middle"
         id="path13892" />
      <path
         d="m 267.70262,334.14792 0,-12.99317 1.71387,0 0,2.00684 q 0.79101,-1.24512 1.93359,-1.86035 1.15723,-0.62988 2.65137,-0.62988 2.21191,0 3.44238,1.23046 1.23047,1.23047 1.23047,3.42774 l 0,8.81836 -1.83105,0 0,-8.0127 q 0,-1.94824 -0.82032,-2.88574 -0.80566,-0.95215 -2.50488,-0.95215 -2.06543,0 -3.04687,1.23047 -0.9668,1.21582 -0.9668,3.83789 l 0,6.78223 -1.80176,0 z"
         style="font-style:normal;font-variant:normal;font-weight:normal;font-stretch:normal;font-size:30px;font-family:'Futura Lt BT';-inkscape-font-specification:'Futura Lt BT';text-align:center;text-anchor:middle"
         id="path13894" />
      <path
         d="m 294.77293,321.15475 0,10.73731 q 0,2.56348 -0.14648,3.91113 -0.13184,1.34766 -0.4541,2.00684 -0.67383,1.45019 -2.06543,2.15332 -1.3916,0.71777 -3.51563,0.71777 -2.59277,0 -4.04297,-1.01074 -1.43554,-0.99609 -1.74316,-3.03223 l 2.25586,0 q 0.21973,1.20117 1.14258,1.81641 0.9375,0.61523 2.53418,0.61523 1.20117,0 2.15332,-0.4248 0.96679,-0.42481 1.45019,-1.17188 0.32227,-0.48339 0.4541,-1.12793 0.14649,-0.62988 0.14649,-1.96289 l 0,-0.68847 0,-1.94825 q -0.60059,1.39161 -1.8457,2.18262 -1.23047,0.79102 -2.82715,0.79102 -2.73926,0 -4.37989,-1.9043 -1.62597,-1.9043 -1.62597,-5.1123 0,-3.17871 1.66992,-5.09766 1.66992,-1.93359 4.42383,-1.93359 1.53808,0 2.7832,0.80566 1.25977,0.79102 1.80176,2.10938 l 0,-2.43165 1.83105,0 z m -6.21093,1.17188 q -2.02149,0 -3.19336,1.45019 -1.15723,1.43555 -1.15723,3.95508 0,2.50489 1.09863,3.91114 1.11328,1.3916 3.07618,1.3916 2.08007,0 3.32519,-1.47949 1.25977,-1.4795 1.25977,-3.98438 0,-2.46094 -1.17188,-3.85254 -1.17187,-1.3916 -3.2373,-1.3916 z"
         style="font-style:normal;font-variant:normal;font-weight:normal;font-stretch:normal;font-size:30px;font-family:'Futura Lt BT';-inkscape-font-specification:'Futura Lt BT';text-align:center;text-anchor:middle"
         id="path13896" />
      <path
         d="m 184.07469,365.2905 q 0,2.51953 1.12793,3.88183 1.14258,1.36231 3.25195,1.36231 2.05079,0 3.22266,-1.47949 1.18652,-1.49415 1.18652,-4.10157 0,-2.38769 -1.17187,-3.75 -1.17188,-1.37695 -3.20801,-1.37695 -2.03613,0 -3.22265,1.46484 -1.18653,1.4502 -1.18653,3.99903 z m 8.75977,6.35742 0,-2.37305 q -0.64453,1.43555 -1.81641,2.19727 -1.15723,0.74707 -2.73926,0.74707 -2.79785,0 -4.51172,-1.91895 -1.69921,-1.91894 -1.69921,-5.06836 0,-3.12011 1.68457,-5.083 1.68457,-1.97754 4.35058,-1.97754 1.65528,0 2.85645,0.73242 1.21582,0.71777 1.875,2.12402 l 0,-2.37305 1.80176,0 0,12.99317 -1.80176,0 z"
         style="font-style:normal;font-variant:normal;font-weight:normal;font-stretch:normal;font-size:30px;font-family:'Futura Lt BT';-inkscape-font-specification:'Futura Lt BT';text-align:center;text-anchor:middle"
         id="path13898" />
      <path
         d="m 201.44774,371.64792 -1.86035,0 0,-22.70508 1.86035,0 0,22.70508 z"
         style="font-style:normal;font-variant:normal;font-weight:normal;font-stretch:normal;font-size:30px;font-family:'Futura Lt BT';-inkscape-font-specification:'Futura Lt BT';text-align:center;text-anchor:middle"
         id="path13900" />
      <path
         d="m 217.81004,358.65475 0,10.73731 q 0,2.56348 -0.14648,3.91113 -0.13184,1.34766 -0.4541,2.00684 -0.67383,1.45019 -2.06543,2.15332 -1.3916,0.71777 -3.51563,0.71777 -2.59277,0 -4.04297,-1.01074 -1.43554,-0.99609 -1.74316,-3.03223 l 2.25586,0 q 0.21973,1.20117 1.14258,1.81641 0.9375,0.61523 2.53418,0.61523 1.20117,0 2.15332,-0.4248 0.96679,-0.42481 1.45019,-1.17188 0.32227,-0.48339 0.4541,-1.12793 0.14649,-0.62988 0.14649,-1.96289 l 0,-0.68847 0,-1.94825 q -0.60059,1.39161 -1.8457,2.18262 -1.23047,0.79102 -2.82715,0.79102 -2.73926,0 -4.37989,-1.9043 -1.62597,-1.9043 -1.62597,-5.1123 0,-3.17871 1.66992,-5.09766 1.66992,-1.93359 4.42383,-1.93359 1.53808,0 2.7832,0.80566 1.25977,0.79102 1.80176,2.10938 l 0,-2.43165 1.83105,0 z m -6.21093,1.17188 q -2.02149,0 -3.19336,1.45019 -1.15723,1.43555 -1.15723,3.95508 0,2.50489 1.09863,3.91114 1.11328,1.3916 3.07617,1.3916 2.08008,0 3.3252,-1.47949 1.25977,-1.4795 1.25977,-3.98438 0,-2.46094 -1.17188,-3.85254 -1.17187,-1.3916 -3.2373,-1.3916 z"
         style="font-style:normal;font-variant:normal;font-weight:normal;font-stretch:normal;font-size:30px;font-family:'Futura Lt BT';-inkscape-font-specification:'Futura Lt BT';text-align:center;text-anchor:middle"
         id="path13902" />
      <path
         d="m 228.57664,370.53464 q 2.13868,0 3.61817,-1.53809 1.49414,-1.55273 1.49414,-3.79394 0,-2.27051 -1.47949,-3.8086 -1.47949,-1.53808 -3.63282,-1.53808 -2.13867,0 -3.61816,1.53808 -1.47949,1.53809 -1.47949,3.8086 0,2.24121 1.47949,3.79394 1.47949,1.53809 3.61816,1.53809 z m -0.0586,1.68457 q -1.3916,0 -2.66601,-0.55664 -1.27442,-0.542 -2.31446,-1.56739 -0.98144,-0.96679 -1.49414,-2.22656 -0.51269,-1.25976 -0.51269,-2.69531 0,-1.4209 0.52734,-2.69531 0.52734,-1.27442 1.50879,-2.25586 0.99609,-0.9961 2.27051,-1.52344 1.27441,-0.52734 2.68066,-0.52734 1.43555,0 2.72461,0.52734 1.30371,0.52734 2.31445,1.52344 1.01075,0.99609 1.53809,2.27051 0.54199,1.27441 0.54199,2.68066 0,1.40625 -0.52734,2.68066 -0.52735,1.25977 -1.52344,2.24121 -1.02539,1.02539 -2.34375,1.56739 -1.30371,0.55664 -2.72461,0.55664 z"
         style="font-style:normal;font-variant:normal;font-weight:normal;font-stretch:normal;font-size:30px;font-family:'Futura Lt BT';-inkscape-font-specification:'Futura Lt BT';text-align:center;text-anchor:middle"
         id="path13904" />
      <path
         d="m 241.1743,361.26218 q 0.99609,-1.68457 1.94824,-2.3877 0.9668,-0.70312 2.24121,-0.70312 0.38086,0 0.76172,0.0732 0.39551,0.0732 0.77637,0.20508 l -0.58594,1.69922 q -0.29297,-0.0879 -0.61523,-0.14649 -0.30762,-0.0586 -0.60059,-0.0586 -1.62597,0 -2.7832,1.52343 -1.14258,1.52344 -1.14258,3.79395 l 0,6.38672 -1.80176,0 0,-12.99317 1.80176,0 0,2.60743 z"
         style="font-style:normal;font-variant:normal;font-weight:normal;font-stretch:normal;font-size:30px;font-family:'Futura Lt BT';-inkscape-font-specification:'Futura Lt BT';text-align:center;text-anchor:middle"
         id="path13906" />
      <path
         d="m 248.52782,353.5864 q 0,-0.57129 0.41015,-0.9668 0.41016,-0.41016 0.98145,-0.41016 0.57129,0 0.98144,0.41016 0.42481,0.39551 0.42481,0.9668 0,0.58593 -0.41016,0.98144 -0.39551,0.39551 -0.99609,0.39551 -0.58594,0 -0.9961,-0.39551 -0.3955,-0.39551 -0.3955,-0.98144 z m 0.4541,18.06152 0,-12.99317 1.86035,0 0,12.99317 -1.86035,0 z"
         style="font-style:normal;font-variant:normal;font-weight:normal;font-stretch:normal;font-size:30px;font-family:'Futura Lt BT';-inkscape-font-specification:'Futura Lt BT';text-align:center;text-anchor:middle"
         id="path13908" />
      <path
         d="m 256.15965,360.19284 -2.38769,0 0,-1.53809 2.38769,0 0,-5.33203 1.77246,0 0,5.33203 2.60743,0 0,1.53809 -2.60743,0 0,11.45508 -1.77246,0 0,-11.45508 z"
         style="font-style:normal;font-variant:normal;font-weight:normal;font-stretch:normal;font-size:30px;font-family:'Futura Lt BT';-inkscape-font-specification:'Futura Lt BT';text-align:center;text-anchor:middle"
         id="path13910" />
      <path
         d="m 263.27879,371.64792 0,-22.70508 1.71387,0 0,11.71875 q 0.79102,-1.24512 1.93359,-1.86035 1.15723,-0.62988 2.65137,-0.62988 2.21192,0 3.44238,1.23046 1.23047,1.23047 1.23047,3.42774 l 0,8.81836 -1.83105,0 0,-8.0127 q 0,-1.94824 -0.82031,-2.88574 -0.80567,-0.95215 -2.50489,-0.95215 -2.06543,0 -3.04687,1.23047 -0.9668,1.21582 -0.9668,3.83789 l 0,6.78223 -1.80176,0 z"
         style="font-style:normal;font-variant:normal;font-weight:normal;font-stretch:normal;font-size:30px;font-family:'Futura Lt BT';-inkscape-font-specification:'Futura Lt BT';text-align:center;text-anchor:middle"
         id="path13912" />
      <path
         d="m 280.72508,371.64792 -1.80176,0 0,-12.99317 1.80176,0 0,2.03614 q 0.64453,-1.23047 1.69922,-1.875 1.05469,-0.64453 2.43164,-0.64453 1.4209,0 2.41699,0.65918 1.01075,0.64453 1.55274,1.90429 0.77637,-1.28906 1.9043,-1.91894 1.12792,-0.64453 2.62207,-0.64453 2.06543,0 3.25195,1.25976 1.18652,1.24512 1.18652,3.42774 l 0,8.78906 -1.80176,0 0,-8.07129 q 0,-1.9043 -0.79101,-2.87109 -0.77637,-0.9668 -2.3291,-0.9668 -1.86035,0 -2.73926,1.21582 -0.86426,1.21582 -0.86426,3.85254 l 0,6.84082 -1.78711,0 0,-8.07129 q 0,-1.99219 -0.74707,-2.91504 -0.74707,-0.92285 -2.31445,-0.92285 -1.9043,0 -2.79785,1.23047 -0.89356,1.23047 -0.89356,3.83789 l 0,6.84082 z"
         style="font-style:normal;font-variant:normal;font-weight:normal;font-stretch:normal;font-size:30px;font-family:'Futura Lt BT';-inkscape-font-specification:'Futura Lt BT';text-align:center;text-anchor:middle"
         id="path13914" />
    </g>
    <path
       style="fill:none;fill-rule:evenodd;stroke:#000000;stroke-width:1px;stroke-linecap:butt;stroke-linejoin:miter;stroke-opacity:1;marker-end:url(#marker12297)"
       d="m 120.5,333.07649 39.28571,0"
       id="path12289"
       inkscape:connector-curvature="0" />
    <path
       inkscape:connector-curvature="0"
       id="path13123"
       d="m 314.42857,333.07649 39.28571,0"
       style="fill:none;fill-rule:evenodd;stroke:#000000;stroke-width:1px;stroke-linecap:butt;stroke-linejoin:miter;stroke-opacity:1;marker-end:url(#marker13125)" />
  </g>
</svg>
